<?xml version="1.0" encoding="UTF-8"?>
<svg xmlns="http://www.w3.org/2000/svg" width="1100" height="520" viewBox="0 0 1100 520">
  <rect x="0" y="0" width="1100" height="520" fill="#fffdf7" />
  <rect x="18" y="18" width="1064" height="484" fill="none" stroke="#d8d1c0" rx="12" />

  <text x="40" y="48" font-size="28" font-family="Georgia, serif" fill="#1f1f1f">fragmented-low-coupling default</text>
  <text x="40" y="74" font-size="14" font-family="Georgia, serif" fill="#666055">Superorganism Index vs Mean Local Complexity over time</text>

  <line x1="70" y1="70" x2="70" y2="450" stroke="#ece5d7" />
  <line x1="70" y1="450" x2="1070" y2="450" stroke="#ece5d7" />

  <path d="M 70.00 344.27 L 73.34 342.00 L 76.69 339.48 L 80.03 337.75 L 83.38 336.40 L 86.72 335.03 L 90.07 333.64 L 93.41 332.23 L 96.76 330.80 L 100.10 329.36 L 103.44 327.89 L 106.79 326.40 L 110.13 324.88 L 113.48 323.35 L 116.82 321.79 L 120.17 320.20 L 123.51 318.59 L 126.86 316.95 L 130.20 315.29 L 133.55 313.59 L 136.89 311.87 L 140.23 310.11 L 143.58 308.33 L 146.92 306.51 L 150.27 304.66 L 153.61 302.77 L 156.96 300.85 L 160.30 298.99 L 163.65 297.23 L 166.99 295.58 L 170.33 294.06 L 173.68 292.69 L 177.02 291.49 L 180.37 290.46 L 183.71 289.63 L 187.06 289.00 L 190.40 288.58 L 193.75 288.39 L 197.09 288.43 L 200.43 288.70 L 203.78 289.20 L 207.12 289.93 L 210.47 290.89 L 213.81 292.06 L 217.16 293.45 L 220.50 295.03 L 223.85 296.79 L 227.19 298.73 L 230.54 300.80 L 233.88 303.01 L 237.22 305.33 L 240.57 307.73 L 243.91 310.30 L 247.26 313.01 L 250.60 315.73 L 253.95 318.44 L 257.29 321.21 L 260.64 323.94 L 263.98 326.60 L 267.32 329.19 L 270.67 331.68 L 274.01 334.06 L 277.36 336.32 L 280.70 338.44 L 284.05 340.43 L 287.39 342.28 L 290.74 343.97 L 294.08 345.51 L 297.42 346.89 L 300.77 348.01 L 304.11 348.96 L 307.46 349.73 L 310.80 350.21 L 314.15 350.49 L 317.49 350.45 L 320.84 350.19 L 324.18 349.60 L 327.53 348.22 L 330.87 346.64 L 334.21 345.01 L 337.56 343.32 L 340.90 341.59 L 344.25 339.80 L 347.59 337.95 L 350.94 335.92 L 354.28 333.67 L 357.63 331.21 L 360.97 328.55 L 364.31 325.69 L 367.66 322.64 L 371.00 320.24 L 374.35 318.30 L 377.69 316.32 L 381.04 314.30 L 384.38 312.24 L 387.73 310.14 L 391.07 308.00 L 394.41 305.82 L 397.76 303.59 L 401.10 301.32 L 404.45 298.99 L 407.79 296.62 L 411.14 294.27 L 414.48 292.06 L 417.83 290.00 L 421.17 288.12 L 424.52 286.46 L 427.86 285.03 L 431.20 283.86 L 434.55 282.98 L 437.89 282.40 L 441.24 282.13 L 444.58 282.19 L 447.93 282.58 L 451.27 283.32 L 454.62 284.39 L 457.96 285.80 L 461.30 287.53 L 464.65 289.58 L 467.99 291.92 L 471.34 294.54 L 474.68 297.40 L 478.03 300.48 L 481.37 303.75 L 484.72 307.17 L 488.06 310.71 L 491.40 314.47 L 494.75 318.37 L 498.09 322.39 L 501.44 326.38 L 504.78 330.31 L 508.13 334.15 L 511.47 337.87 L 514.82 341.46 L 518.16 344.19 L 521.51 346.74 L 524.85 349.34 L 528.19 352.01 L 531.54 354.66 L 534.88 357.12 L 538.23 359.40 L 541.57 361.50 L 544.92 363.29 L 548.26 364.90 L 551.61 366.17 L 554.95 367.25 L 558.29 367.15 L 561.64 366.10 L 564.98 365.02 L 568.33 363.91 L 571.67 362.75 L 575.02 361.56 L 578.36 360.33 L 581.71 359.06 L 585.05 357.74 L 588.39 356.37 L 591.74 354.96 L 595.08 353.50 L 598.43 351.98 L 601.77 350.41 L 605.12 348.79 L 608.46 347.10 L 611.81 345.22 L 615.15 343.12 L 618.49 340.79 L 621.84 338.25 L 625.18 335.50 L 628.53 332.98 L 631.87 331.25 L 635.22 329.48 L 638.56 327.68 L 641.91 325.84 L 645.25 323.98 L 648.60 322.08 L 651.94 320.14 L 655.28 318.17 L 658.63 316.16 L 661.97 314.12 L 665.32 312.03 L 668.66 309.91 L 672.01 307.74 L 675.35 305.55 L 678.70 303.47 L 682.04 301.52 L 685.38 299.73 L 688.73 298.12 L 692.07 296.72 L 695.42 295.53 L 698.76 294.60 L 702.11 293.92 L 705.45 293.53 L 708.80 293.42 L 712.14 293.60 L 715.48 294.09 L 718.83 294.87 L 722.17 295.96 L 725.52 297.34 L 728.86 299.00 L 732.21 300.92 L 735.55 303.10 L 738.90 305.50 L 742.24 308.11 L 745.59 310.90 L 748.93 313.84 L 752.27 316.90 L 755.62 320.05 L 758.96 323.26 L 762.31 326.50 L 765.65 329.73 L 769.00 332.95 L 772.34 336.10 L 775.69 339.18 L 779.03 342.15 L 782.37 345.17 L 785.72 348.05 L 789.06 350.62 L 792.41 353.18 L 795.75 355.41 L 799.10 357.63 L 802.44 359.50 L 805.79 361.19 L 809.13 362.69 L 812.47 364.01 L 815.82 365.13 L 819.16 366.06 L 822.51 366.80 L 825.85 366.50 L 829.20 365.40 L 832.54 364.26 L 835.89 363.08 L 839.23 361.86 L 842.58 360.60 L 845.92 359.29 L 849.26 357.93 L 852.61 356.53 L 855.95 355.07 L 859.30 353.56 L 862.64 352.00 L 865.99 350.38 L 869.33 348.70 L 872.68 346.80 L 876.02 344.67 L 879.36 342.31 L 882.71 339.74 L 886.05 336.96 L 889.40 335.06 L 892.74 333.37 L 896.09 331.65 L 899.43 329.91 L 902.78 328.13 L 906.12 326.32 L 909.46 324.48 L 912.81 322.61 L 916.15 320.70 L 919.50 318.76 L 922.84 316.78 L 926.19 314.76 L 929.53 312.71 L 932.88 310.62 L 936.22 308.48 L 939.57 306.39 L 942.91 304.42 L 946.25 302.59 L 949.60 300.92 L 952.94 299.43 L 956.29 298.15 L 959.63 297.10 L 962.98 296.28 L 966.32 295.73 L 969.67 295.45 L 973.01 295.45 L 976.35 295.74 L 979.70 296.31 L 983.04 297.18 L 986.39 298.33 L 989.73 299.76 L 993.08 301.45 L 996.42 303.39 L 999.77 305.57 L 1003.11 307.95 L 1006.45 310.53 L 1009.80 313.26 L 1013.14 316.14 L 1016.49 319.11 L 1019.83 322.17 L 1023.18 325.27 L 1026.52 328.39 L 1029.87 331.51 L 1033.21 334.59 L 1036.56 337.60 L 1039.90 340.54 L 1043.24 343.37 L 1046.59 346.09 L 1049.93 348.66 L 1053.28 351.09 L 1056.62 353.36 L 1059.97 355.47 L 1063.31 357.40 L 1066.66 359.16 L 1070.00 360.73" fill="none" stroke="#1b7f79" stroke-width="3" />
  <path d="M 70.00 293.86 L 73.34 290.54 L 76.69 287.01 L 80.03 285.32 L 83.38 284.40 L 86.72 283.45 L 90.07 282.49 L 93.41 281.50 L 96.76 280.48 L 100.10 279.44 L 103.44 278.38 L 106.79 277.29 L 110.13 276.17 L 113.48 275.02 L 116.82 273.84 L 120.17 272.63 L 123.51 271.39 L 126.86 270.12 L 130.20 268.81 L 133.55 267.46 L 136.89 266.08 L 140.23 264.66 L 143.58 263.20 L 146.92 261.70 L 150.27 260.16 L 153.61 258.57 L 156.96 256.94 L 160.30 255.41 L 163.65 254.01 L 166.99 252.76 L 170.33 251.67 L 173.68 250.75 L 177.02 250.02 L 180.37 249.48 L 183.71 249.15 L 187.06 249.04 L 190.40 249.15 L 193.75 249.49 L 197.09 250.06 L 200.43 250.86 L 203.78 251.90 L 207.12 253.18 L 210.47 254.69 L 213.81 256.43 L 217.16 258.39 L 220.50 260.57 L 223.85 262.96 L 227.19 265.54 L 230.54 268.30 L 233.88 271.22 L 237.22 274.30 L 240.57 277.50 L 243.91 280.94 L 247.26 284.61 L 250.60 288.35 L 253.95 292.14 L 257.29 296.11 L 260.64 300.07 L 263.98 304.01 L 267.32 307.89 L 270.67 311.69 L 274.01 315.37 L 277.36 318.92 L 280.70 322.30 L 284.05 325.50 L 287.39 328.47 L 290.74 331.21 L 294.08 333.68 L 297.42 335.87 L 300.77 337.54 L 304.11 338.90 L 307.46 339.92 L 310.80 340.40 L 314.15 340.52 L 317.49 340.11 L 320.84 339.32 L 324.18 337.94 L 327.53 335.26 L 330.87 332.29 L 334.21 329.32 L 337.56 326.35 L 340.90 323.38 L 344.25 320.41 L 347.59 317.44 L 350.94 314.30 L 354.28 310.93 L 357.63 307.38 L 360.97 303.65 L 364.31 299.78 L 367.66 295.80 L 371.00 293.09 L 374.35 291.22 L 377.69 289.31 L 381.04 287.36 L 384.38 285.35 L 387.73 283.30 L 391.07 281.19 L 394.41 279.03 L 397.76 276.82 L 401.10 274.54 L 404.45 272.21 L 407.79 269.82 L 411.14 267.47 L 414.48 265.30 L 417.83 263.32 L 421.17 261.57 L 424.52 260.06 L 427.86 258.80 L 431.20 257.82 L 434.55 257.13 L 437.89 256.75 L 441.24 256.68 L 444.58 256.93 L 447.93 257.51 L 451.27 258.43 L 454.62 259.69 L 457.96 261.29 L 461.30 263.23 L 464.65 265.50 L 467.99 268.10 L 471.34 271.01 L 474.68 274.22 L 478.03 277.72 L 481.37 281.48 L 484.72 285.49 L 488.06 289.73 L 491.40 294.32 L 494.75 299.28 L 498.09 304.58 L 501.44 309.99 L 504.78 315.47 L 508.13 321.00 L 511.47 326.52 L 514.82 331.99 L 518.16 336.46 L 521.51 340.71 L 524.85 345.08 L 528.19 349.55 L 531.54 354.01 L 534.88 358.20 L 538.23 362.09 L 541.57 365.63 L 544.92 368.51 L 548.26 370.98 L 551.61 372.72 L 554.95 374.00 L 558.29 372.92 L 561.64 369.97 L 564.98 367.00 L 568.33 364.02 L 571.67 361.02 L 575.02 358.01 L 578.36 354.99 L 581.71 351.96 L 585.05 348.92 L 588.39 345.87 L 591.74 342.82 L 595.08 339.77 L 598.43 336.71 L 601.77 333.65 L 605.12 330.59 L 608.46 327.54 L 611.81 324.27 L 615.15 320.79 L 618.49 317.11 L 621.84 313.26 L 625.18 309.27 L 628.53 305.96 L 631.87 304.24 L 635.22 302.49 L 638.56 300.70 L 641.91 298.87 L 645.25 297.00 L 648.60 295.09 L 651.94 293.13 L 655.28 291.14 L 658.63 289.09 L 661.97 287.00 L 665.32 284.86 L 668.66 282.68 L 672.01 280.44 L 675.35 278.18 L 678.70 276.10 L 682.04 274.20 L 685.38 272.50 L 688.73 271.03 L 692.07 269.80 L 695.42 268.83 L 698.76 268.13 L 702.11 267.71 L 705.45 267.58 L 708.80 267.75 L 712.14 268.23 L 715.48 269.03 L 718.83 270.14 L 722.17 271.56 L 725.52 273.29 L 728.86 275.33 L 732.21 277.68 L 735.55 280.31 L 738.90 283.22 L 742.24 286.39 L 745.59 289.80 L 748.93 293.44 L 752.27 297.29 L 755.62 301.31 L 758.96 305.48 L 762.31 309.77 L 765.65 314.15 L 769.00 318.59 L 772.34 323.05 L 775.69 327.50 L 779.03 331.90 L 782.37 336.46 L 785.72 340.90 L 789.06 344.92 L 792.41 349.01 L 795.75 352.58 L 799.10 356.16 L 802.44 359.16 L 805.79 361.81 L 809.13 364.09 L 812.47 365.96 L 815.82 367.42 L 819.16 368.43 L 822.51 368.97 L 825.85 367.47 L 829.20 364.45 L 832.54 361.41 L 835.89 358.36 L 839.23 355.30 L 842.58 352.23 L 845.92 349.16 L 849.26 346.07 L 852.61 342.98 L 855.95 339.89 L 859.30 336.79 L 862.64 333.70 L 865.99 330.60 L 869.33 327.51 L 872.68 324.18 L 876.02 320.63 L 879.36 316.88 L 882.71 312.97 L 886.05 308.92 L 889.40 306.79 L 892.74 305.13 L 896.09 303.44 L 899.43 301.72 L 902.78 299.95 L 906.12 298.15 L 909.46 296.31 L 912.81 294.43 L 916.15 292.51 L 919.50 290.54 L 922.84 288.53 L 926.19 286.48 L 929.53 284.38 L 932.88 282.23 L 936.22 280.03 L 939.57 277.91 L 942.91 275.97 L 946.25 274.22 L 949.60 272.69 L 952.94 271.37 L 956.29 270.30 L 959.63 269.49 L 962.98 268.94 L 966.32 268.67 L 969.67 268.69 L 973.01 269.01 L 976.35 269.63 L 979.70 270.55 L 983.04 271.78 L 986.39 273.31 L 989.73 275.15 L 993.08 277.27 L 996.42 279.69 L 999.77 282.37 L 1003.11 285.32 L 1006.45 288.52 L 1009.80 291.94 L 1013.14 295.57 L 1016.49 299.38 L 1019.83 303.35 L 1023.18 307.45 L 1026.52 311.65 L 1029.87 315.93 L 1033.21 320.24 L 1036.56 324.55 L 1039.90 328.84 L 1043.24 333.06 L 1046.59 337.17 L 1049.93 341.15 L 1053.28 344.94 L 1056.62 348.53 L 1059.97 351.87 L 1063.31 354.93 L 1066.66 357.68 L 1070.00 360.08" fill="none" stroke="#cf5c36" stroke-width="3" />

  <circle cx="770" cy="48" r="5" fill="#1b7f79" /><text x="782" y="53" font-size="13" fill="#666055">Superorganism</text>
  <circle cx="900" cy="48" r="5" fill="#cf5c36" /><text x="912" y="53" font-size="13" fill="#666055">Complexity</text>

  <text x="70" y="494" font-size="12" fill="#666055">Tick 0</text>
  <text x="1040" y="494" font-size="12" fill="#666055">Tick 299</text>

  <text x="850" y="380" font-size="12" fill="#666055">Final modes (H/S/A)</text>
  
        <rect x="840" y="300" width="60" height="100" fill="#637d5f" rx="6" />
        <text x="870" y="424" text-anchor="middle" font-size="14" fill="#666055">H</text>
        <text x="870" y="294" text-anchor="middle" font-size="12" fill="#1f1f1f">3</text>
      

        <rect x="922" y="400" width="60" height="0" fill="#9e7c46" rx="6" />
        <text x="952" y="424" text-anchor="middle" font-size="14" fill="#666055">S</text>
        <text x="952" y="394" text-anchor="middle" font-size="12" fill="#1f1f1f">0</text>
      

        <rect x="1004" y="400" width="60" height="0" fill="#8a5a44" rx="6" />
        <text x="1034" y="424" text-anchor="middle" font-size="14" fill="#666055">A</text>
        <text x="1034" y="394" text-anchor="middle" font-size="12" fill="#1f1f1f">0</text>
      
</svg>