<?xml version="1.0" encoding="UTF-8"?>
<svg xmlns="http://www.w3.org/2000/svg" width="1100" height="520" viewBox="0 0 1100 520">
  <rect x="0" y="0" width="1100" height="520" fill="#fffdf7" />
  <rect x="18" y="18" width="1064" height="484" fill="none" stroke="#d8d1c0" rx="12" />

  <text x="40" y="48" font-size="28" font-family="Georgia, serif" fill="#1f1f1f">baseline default</text>
  <text x="40" y="74" font-size="14" font-family="Georgia, serif" fill="#666055">Superorganism Index vs Mean Local Complexity over time</text>
  <text x="40" y="96" font-size="13" font-family="Georgia, serif" fill="#666055">Behavior class: Unclassified</text>

  <line x1="70" y1="70" x2="70" y2="450" stroke="#ece5d7" />
  <line x1="70" y1="450" x2="1070" y2="450" stroke="#ece5d7" />
  
        <line x1="70" y1="70" x2="1070" y2="70" stroke="#ece5d7" stroke-dasharray="4,4" />
        <text x="56" y="74" text-anchor="end" font-size="12" fill="#666055">1.0</text>
      

        <line x1="70" y1="260" x2="1070" y2="260" stroke="#ece5d7" stroke-dasharray="4,4" />
        <text x="56" y="264" text-anchor="end" font-size="12" fill="#666055">0.5</text>
      

        <line x1="70" y1="450" x2="1070" y2="450" stroke="#ece5d7" stroke-dasharray="4,4" />
        <text x="56" y="454" text-anchor="end" font-size="12" fill="#666055">0.0</text>
      

  <path d="M 70.00 200.34 L 73.34 202.01 L 76.69 196.99 L 80.03 199.69 L 83.38 202.83 L 86.72 206.39 L 90.07 210.30 L 93.41 214.59 L 96.76 219.21 L 100.10 224.17 L 103.44 229.47 L 106.79 234.51 L 110.13 235.08 L 113.48 235.75 L 116.82 235.74 L 120.17 236.55 L 123.51 237.44 L 126.86 238.39 L 130.20 239.39 L 133.55 241.21 L 136.89 242.30 L 140.23 243.42 L 143.58 243.75 L 146.92 244.21 L 150.27 244.78 L 153.61 245.11 L 156.96 245.21 L 160.30 264.61 L 163.65 265.61 L 166.99 295.95 L 170.33 297.27 L 173.68 306.84 L 177.02 307.40 L 180.37 307.75 L 183.71 313.19 L 187.06 313.52 L 190.40 313.69 L 193.75 313.85 L 197.09 313.98 L 200.43 314.08 L 203.78 314.16 L 207.12 314.23 L 210.47 314.28 L 213.81 314.31 L 217.16 314.30 L 220.50 314.24 L 223.85 314.16 L 227.19 314.05 L 230.54 313.93 L 233.88 313.75 L 237.22 313.54 L 240.57 313.30 L 243.91 313.05 L 247.26 313.01 L 250.60 312.93 L 253.95 312.78 L 257.29 312.59 L 260.64 312.38 L 263.98 312.14 L 267.32 311.89 L 270.67 311.61 L 274.01 311.28 L 277.36 310.94 L 280.70 310.58 L 284.05 310.20 L 287.39 309.81 L 290.74 309.42 L 294.08 309.01 L 297.42 308.55 L 300.77 308.09 L 304.11 307.61 L 307.46 307.13 L 310.80 306.63 L 314.15 306.13 L 317.49 305.63 L 320.84 305.07 L 324.18 304.50 L 327.53 303.93 L 330.87 303.35 L 334.21 302.76 L 337.56 302.19 L 340.90 301.61 L 344.25 301.02 L 347.59 300.43 L 350.94 299.79 L 354.28 299.13 L 357.63 298.48 L 360.97 297.81 L 364.31 297.14 L 367.66 296.47 L 371.00 295.79 L 374.35 295.11 L 377.69 294.40 L 381.04 293.66 L 384.38 292.85 L 387.73 292.03 L 391.07 291.19 L 394.41 290.36 L 397.76 289.53 L 401.10 288.71 L 404.45 287.91 L 407.79 287.12 L 411.14 286.35 L 414.48 285.59 L 417.83 284.87 L 421.17 284.17 L 424.52 283.49 L 427.86 282.92 L 431.20 282.61 L 434.55 282.30 L 437.89 282.04 L 441.24 281.81 L 444.58 281.61 L 447.93 281.42 L 451.27 281.26 L 454.62 281.11 L 457.96 280.98 L 461.30 280.86 L 464.65 280.75 L 467.99 280.65 L 471.34 280.55 L 474.68 280.47 L 478.03 280.39 L 481.37 280.32 L 484.72 280.25 L 488.06 280.19 L 491.40 280.14 L 494.75 280.08 L 498.09 280.03 L 501.44 279.99 L 504.78 279.95 L 508.13 279.91 L 511.47 279.87 L 514.82 279.83 L 518.16 279.80 L 521.51 279.77 L 524.85 279.74 L 528.19 279.71 L 531.54 279.68 L 534.88 279.66 L 538.23 279.64 L 541.57 279.61 L 544.92 279.59 L 548.26 279.57 L 551.61 279.55 L 554.95 279.54 L 558.29 279.52 L 561.64 279.50 L 564.98 279.49 L 568.33 279.47 L 571.67 279.46 L 575.02 279.45 L 578.36 279.43 L 581.71 279.42 L 585.05 279.41 L 588.39 279.40 L 591.74 279.39 L 595.08 279.38 L 598.43 279.37 L 601.77 279.36 L 605.12 279.35 L 608.46 279.35 L 611.81 279.34 L 615.15 279.33 L 618.49 279.32 L 621.84 279.32 L 625.18 279.31 L 628.53 279.31 L 631.87 279.30 L 635.22 279.29 L 638.56 279.29 L 641.91 279.29 L 645.25 279.28 L 648.60 279.28 L 651.94 279.27 L 655.28 279.27 L 658.63 279.26 L 661.97 279.26 L 665.32 279.26 L 668.66 279.25 L 672.01 279.25 L 675.35 279.25 L 678.70 279.25 L 682.04 279.24 L 685.38 279.24 L 688.73 279.24 L 692.07 279.24 L 695.42 279.23 L 698.76 279.23 L 702.11 279.23 L 705.45 279.23 L 708.80 279.22 L 712.14 279.22 L 715.48 279.22 L 718.83 279.22 L 722.17 279.22 L 725.52 279.22 L 728.86 279.22 L 732.21 279.21 L 735.55 279.21 L 738.90 279.21 L 742.24 279.21 L 745.59 279.21 L 748.93 279.21 L 752.27 279.21 L 755.62 279.21 L 758.96 279.21 L 762.31 279.21 L 765.65 279.20 L 769.00 279.20 L 772.34 279.20 L 775.69 279.20 L 779.03 279.20 L 782.37 279.20 L 785.72 279.20 L 789.06 279.20 L 792.41 279.20 L 795.75 279.20 L 799.10 279.20 L 802.44 279.20 L 805.79 279.20 L 809.13 279.20 L 812.47 279.20 L 815.82 279.20 L 819.16 279.20 L 822.51 279.20 L 825.85 279.20 L 829.20 279.20 L 832.54 279.19 L 835.89 279.19 L 839.23 279.19 L 842.58 279.19 L 845.92 279.19 L 849.26 279.19 L 852.61 279.19 L 855.95 279.19 L 859.30 279.19 L 862.64 279.19 L 865.99 279.19 L 869.33 279.19 L 872.68 279.19 L 876.02 279.19 L 879.36 279.19 L 882.71 279.19 L 886.05 279.19 L 889.40 279.19 L 892.74 279.19 L 896.09 279.19 L 899.43 279.19 L 902.78 279.19 L 906.12 279.19 L 909.46 279.19 L 912.81 279.19 L 916.15 279.19 L 919.50 279.19 L 922.84 279.19 L 926.19 279.19 L 929.53 279.19 L 932.88 279.19 L 936.22 279.19 L 939.57 279.19 L 942.91 279.19 L 946.25 279.19 L 949.60 279.19 L 952.94 279.19 L 956.29 279.19 L 959.63 279.19 L 962.98 279.19 L 966.32 279.19 L 969.67 279.19 L 973.01 279.19 L 976.35 279.19 L 979.70 279.19 L 983.04 279.19 L 986.39 279.19 L 989.73 279.19 L 993.08 279.19 L 996.42 279.19 L 999.77 279.19 L 1003.11 279.19 L 1006.45 279.19 L 1009.80 279.19 L 1013.14 279.19 L 1016.49 279.19 L 1019.83 279.19 L 1023.18 279.19 L 1026.52 279.19 L 1029.87 279.19 L 1033.21 279.19 L 1036.56 279.19 L 1039.90 279.19 L 1043.24 279.19 L 1046.59 279.19 L 1049.93 279.19 L 1053.28 279.19 L 1056.62 279.19 L 1059.97 279.19 L 1063.31 279.19 L 1066.66 279.19 L 1070.00 279.19" fill="none" stroke="#1b7f79" stroke-width="3" />
  <path d="M 70.00 212.13 L 73.34 212.51 L 76.69 191.31 L 80.03 192.40 L 83.38 193.89 L 86.72 195.55 L 90.07 197.36 L 93.41 199.32 L 96.76 201.42 L 100.10 203.67 L 103.44 206.05 L 106.79 208.35 L 110.13 209.63 L 113.48 210.99 L 116.82 212.28 L 120.17 213.84 L 123.51 215.48 L 126.86 217.20 L 130.20 218.99 L 133.55 221.04 L 136.89 223.03 L 140.23 225.07 L 143.58 226.31 L 146.92 227.72 L 150.27 229.17 L 153.61 230.16 L 156.96 230.72 L 160.30 241.50 L 163.65 242.63 L 166.99 260.97 L 170.33 262.75 L 173.68 286.46 L 177.02 288.51 L 180.37 289.96 L 183.71 313.47 L 187.06 314.98 L 190.40 315.76 L 193.75 316.49 L 197.09 317.19 L 200.43 317.85 L 203.78 318.48 L 207.12 319.08 L 210.47 319.51 L 213.81 319.88 L 217.16 320.20 L 220.50 320.39 L 223.85 320.51 L 227.19 320.53 L 230.54 320.48 L 233.88 320.33 L 237.22 320.01 L 240.57 319.61 L 243.91 319.15 L 247.26 319.71 L 250.60 320.08 L 253.95 320.28 L 257.29 320.35 L 260.64 320.31 L 263.98 320.17 L 267.32 319.97 L 270.67 319.71 L 274.01 319.39 L 277.36 319.03 L 280.70 318.58 L 284.05 318.11 L 287.39 317.62 L 290.74 317.12 L 294.08 316.61 L 297.42 316.08 L 300.77 315.54 L 304.11 315.00 L 307.46 314.44 L 310.80 313.88 L 314.15 313.32 L 317.49 312.77 L 320.84 312.20 L 324.18 311.65 L 327.53 311.09 L 330.87 310.55 L 334.21 310.01 L 337.56 309.38 L 340.90 308.76 L 344.25 308.14 L 347.59 307.53 L 350.94 306.92 L 354.28 306.31 L 357.63 305.71 L 360.97 305.12 L 364.31 304.53 L 367.66 303.96 L 371.00 303.40 L 374.35 302.84 L 377.69 302.22 L 381.04 301.58 L 384.38 300.91 L 387.73 300.22 L 391.07 299.53 L 394.41 298.84 L 397.76 298.17 L 401.10 297.52 L 404.45 296.89 L 407.79 296.28 L 411.14 295.71 L 414.48 295.17 L 417.83 294.66 L 421.17 294.18 L 424.52 293.75 L 427.86 293.34 L 431.20 292.98 L 434.55 292.64 L 437.89 292.34 L 441.24 292.07 L 444.58 291.84 L 447.93 291.63 L 451.27 291.44 L 454.62 291.28 L 457.96 291.14 L 461.30 291.01 L 464.65 290.89 L 467.99 290.79 L 471.34 290.69 L 474.68 290.61 L 478.03 290.53 L 481.37 290.46 L 484.72 290.40 L 488.06 290.34 L 491.40 290.29 L 494.75 290.24 L 498.09 290.20 L 501.44 290.15 L 504.78 290.12 L 508.13 290.08 L 511.47 290.05 L 514.82 290.02 L 518.16 289.99 L 521.51 289.97 L 524.85 289.94 L 528.19 289.92 L 531.54 289.90 L 534.88 289.88 L 538.23 289.86 L 541.57 289.84 L 544.92 289.83 L 548.26 289.81 L 551.61 289.80 L 554.95 289.79 L 558.29 289.77 L 561.64 289.76 L 564.98 289.75 L 568.33 289.74 L 571.67 289.73 L 575.02 289.72 L 578.36 289.71 L 581.71 289.71 L 585.05 289.70 L 588.39 289.69 L 591.74 289.68 L 595.08 289.68 L 598.43 289.67 L 601.77 289.67 L 605.12 289.66 L 608.46 289.66 L 611.81 289.65 L 615.15 289.65 L 618.49 289.64 L 621.84 289.64 L 625.18 289.64 L 628.53 289.63 L 631.87 289.63 L 635.22 289.63 L 638.56 289.62 L 641.91 289.62 L 645.25 289.62 L 648.60 289.62 L 651.94 289.61 L 655.28 289.61 L 658.63 289.61 L 661.97 289.61 L 665.32 289.61 L 668.66 289.61 L 672.01 289.60 L 675.35 289.60 L 678.70 289.60 L 682.04 289.60 L 685.38 289.60 L 688.73 289.60 L 692.07 289.60 L 695.42 289.60 L 698.76 289.59 L 702.11 289.59 L 705.45 289.59 L 708.80 289.59 L 712.14 289.59 L 715.48 289.59 L 718.83 289.59 L 722.17 289.59 L 725.52 289.59 L 728.86 289.59 L 732.21 289.59 L 735.55 289.59 L 738.90 289.59 L 742.24 289.59 L 745.59 289.59 L 748.93 289.59 L 752.27 289.59 L 755.62 289.59 L 758.96 289.59 L 762.31 289.59 L 765.65 289.59 L 769.00 289.59 L 772.34 289.59 L 775.69 289.59 L 779.03 289.59 L 782.37 289.59 L 785.72 289.59 L 789.06 289.59 L 792.41 289.59 L 795.75 289.59 L 799.10 289.59 L 802.44 289.59 L 805.79 289.59 L 809.13 289.59 L 812.47 289.59 L 815.82 289.59 L 819.16 289.59 L 822.51 289.59 L 825.85 289.59 L 829.20 289.59 L 832.54 289.59 L 835.89 289.59 L 839.23 289.59 L 842.58 289.59 L 845.92 289.59 L 849.26 289.59 L 852.61 289.59 L 855.95 289.59 L 859.30 289.59 L 862.64 289.59 L 865.99 289.59 L 869.33 289.59 L 872.68 289.59 L 876.02 289.59 L 879.36 289.59 L 882.71 289.59 L 886.05 289.59 L 889.40 289.59 L 892.74 289.59 L 896.09 289.59 L 899.43 289.59 L 902.78 289.59 L 906.12 289.59 L 909.46 289.59 L 912.81 289.59 L 916.15 289.59 L 919.50 289.59 L 922.84 289.59 L 926.19 289.59 L 929.53 289.59 L 932.88 289.59 L 936.22 289.59 L 939.57 289.59 L 942.91 289.59 L 946.25 289.59 L 949.60 289.59 L 952.94 289.59 L 956.29 289.59 L 959.63 289.59 L 962.98 289.59 L 966.32 289.59 L 969.67 289.59 L 973.01 289.59 L 976.35 289.59 L 979.70 289.59 L 983.04 289.59 L 986.39 289.59 L 989.73 289.59 L 993.08 289.59 L 996.42 289.59 L 999.77 289.59 L 1003.11 289.59 L 1006.45 289.59 L 1009.80 289.59 L 1013.14 289.59 L 1016.49 289.59 L 1019.83 289.59 L 1023.18 289.59 L 1026.52 289.59 L 1029.87 289.59 L 1033.21 289.59 L 1036.56 289.59 L 1039.90 289.59 L 1043.24 289.59 L 1046.59 289.59 L 1049.93 289.59 L 1053.28 289.59 L 1056.62 289.59 L 1059.97 289.59 L 1063.31 289.59 L 1066.66 289.59 L 1070.00 289.59" fill="none" stroke="#cf5c36" stroke-width="3" />

  <circle cx="770" cy="48" r="5" fill="#1b7f79" /><text x="782" y="53" font-size="13" fill="#666055">Superorganism</text>
  <circle cx="900" cy="48" r="5" fill="#cf5c36" /><text x="912" y="53" font-size="13" fill="#666055">Complexity</text>

  <text x="70" y="494" font-size="12" fill="#666055">Tick 0</text>
  <text x="1040" y="494" font-size="12" fill="#666055">Tick 299</text>

  <text x="850" y="380" font-size="12" fill="#666055">Final modes (H/S/A)</text>
  
        <rect x="840" y="300" width="60" height="100" fill="#637d5f" rx="6" />
        <text x="870" y="424" text-anchor="middle" font-size="14" fill="#666055">H</text>
        <text x="870" y="294" text-anchor="middle" font-size="12" fill="#1f1f1f">4</text>
      

        <rect x="922" y="400" width="60" height="0" fill="#9e7c46" rx="6" />
        <text x="952" y="424" text-anchor="middle" font-size="14" fill="#666055">S</text>
        <text x="952" y="394" text-anchor="middle" font-size="12" fill="#1f1f1f">0</text>
      

        <rect x="1004" y="400" width="60" height="0" fill="#8a5a44" rx="6" />
        <text x="1034" y="424" text-anchor="middle" font-size="14" fill="#666055">A</text>
        <text x="1034" y="394" text-anchor="middle" font-size="12" fill="#1f1f1f">0</text>
      
</svg>