<?xml version="1.0" encoding="UTF-8"?>
<svg xmlns="http://www.w3.org/2000/svg" width="1100" height="520" viewBox="0 0 1100 520">
  <rect x="0" y="0" width="1100" height="520" fill="#fffdf7" />
  <rect x="18" y="18" width="1064" height="484" fill="none" stroke="#d8d1c0" rx="12" />

  <text x="40" y="48" font-size="28" font-family="Georgia, serif" fill="#1f1f1f">fragmented-low-coupling default</text>
  <text x="40" y="74" font-size="14" font-family="Georgia, serif" fill="#666055">Superorganism Index vs Mean Local Complexity over time</text>
  <text x="40" y="96" font-size="13" font-family="Georgia, serif" fill="#666055">Behavior class: Unclassified</text>

  <line x1="70" y1="70" x2="70" y2="450" stroke="#ece5d7" />
  <line x1="70" y1="450" x2="1070" y2="450" stroke="#ece5d7" />
  
        <line x1="70" y1="70" x2="1070" y2="70" stroke="#ece5d7" stroke-dasharray="4,4" />
        <text x="56" y="74" text-anchor="end" font-size="12" fill="#666055">1.0</text>
      

        <line x1="70" y1="260" x2="1070" y2="260" stroke="#ece5d7" stroke-dasharray="4,4" />
        <text x="56" y="264" text-anchor="end" font-size="12" fill="#666055">0.5</text>
      

        <line x1="70" y1="450" x2="1070" y2="450" stroke="#ece5d7" stroke-dasharray="4,4" />
        <text x="56" y="454" text-anchor="end" font-size="12" fill="#666055">0.0</text>
      

  <path d="M 70.00 344.27 L 73.34 341.76 L 76.69 339.29 L 80.03 338.12 L 83.38 336.97 L 86.72 335.83 L 90.07 334.65 L 93.41 333.40 L 96.76 332.14 L 100.10 330.88 L 103.44 329.61 L 106.79 328.34 L 110.13 327.06 L 113.48 325.77 L 116.82 324.47 L 120.17 323.17 L 123.51 321.86 L 126.86 320.54 L 130.20 319.22 L 133.55 317.88 L 136.89 316.53 L 140.23 315.17 L 143.58 313.80 L 146.92 312.42 L 150.27 311.03 L 153.61 309.62 L 156.96 308.20 L 160.30 306.77 L 163.65 305.33 L 166.99 303.86 L 170.33 302.39 L 173.68 300.90 L 177.02 299.39 L 180.37 297.87 L 183.71 296.34 L 187.06 294.89 L 190.40 293.51 L 193.75 292.22 L 197.09 291.04 L 200.43 289.96 L 203.78 289.01 L 207.12 288.19 L 210.47 287.50 L 213.81 286.95 L 217.16 286.55 L 220.50 286.30 L 223.85 286.20 L 227.19 286.25 L 230.54 286.45 L 233.88 286.79 L 237.22 287.28 L 240.57 287.91 L 243.91 288.66 L 247.26 289.54 L 250.60 290.54 L 253.95 291.64 L 257.29 292.83 L 260.64 294.11 L 263.98 295.46 L 267.32 296.86 L 270.67 298.32 L 274.01 299.81 L 277.36 301.31 L 280.70 302.83 L 284.05 304.34 L 287.39 305.84 L 290.74 307.31 L 294.08 308.74 L 297.42 310.13 L 300.77 311.45 L 304.11 312.71 L 307.46 313.89 L 310.80 314.98 L 314.15 315.99 L 317.49 316.90 L 320.84 317.71 L 324.18 318.41 L 327.53 319.01 L 330.87 319.49 L 334.21 319.85 L 337.56 320.10 L 340.90 320.22 L 344.25 319.99 L 347.59 319.48 L 350.94 318.78 L 354.28 317.89 L 357.63 316.82 L 360.97 315.57 L 364.31 314.15 L 367.66 312.56 L 371.00 310.83 L 374.35 308.95 L 377.69 306.95 L 381.04 304.82 L 384.38 302.59 L 387.73 300.26 L 391.07 297.87 L 394.41 295.41 L 397.76 292.91 L 401.10 290.39 L 404.45 287.86 L 407.79 285.36 L 411.14 282.89 L 414.48 280.47 L 417.83 278.14 L 421.17 276.17 L 424.52 274.92 L 427.86 274.01 L 431.20 273.35 L 434.55 272.95 L 437.89 272.81 L 441.24 272.92 L 444.58 273.29 L 447.93 273.91 L 451.27 274.77 L 454.62 275.86 L 457.96 277.17 L 461.30 278.67 L 464.65 280.36 L 467.99 282.22 L 471.34 284.22 L 474.68 286.34 L 478.03 288.56 L 481.37 290.87 L 484.72 293.23 L 488.06 295.63 L 491.40 298.04 L 494.75 300.47 L 498.09 302.92 L 501.44 305.45 L 504.78 307.95 L 508.13 310.49 L 511.47 312.96 L 514.82 315.35 L 518.16 317.72 L 521.51 319.98 L 524.85 322.13 L 528.19 324.14 L 531.54 325.92 L 534.88 327.32 L 538.23 328.49 L 541.57 329.34 L 544.92 329.95 L 548.26 330.23 L 551.61 330.28 L 554.95 329.99 L 558.29 332.04 L 561.64 333.55 L 564.98 334.62 L 568.33 335.31 L 571.67 335.69 L 575.02 335.82 L 578.36 335.40 L 581.71 334.88 L 585.05 334.35 L 588.39 333.80 L 591.74 333.23 L 595.08 332.64 L 598.43 332.04 L 601.77 331.41 L 605.12 330.77 L 608.46 330.11 L 611.81 329.43 L 615.15 328.74 L 618.49 328.01 L 621.84 327.24 L 625.18 326.42 L 628.53 325.57 L 631.87 324.69 L 635.22 323.78 L 638.56 322.87 L 641.91 321.94 L 645.25 321.01 L 648.60 320.08 L 651.94 319.15 L 655.28 318.23 L 658.63 317.31 L 661.97 316.41 L 665.32 315.52 L 668.66 314.65 L 672.01 313.79 L 675.35 312.95 L 678.70 312.12 L 682.04 311.32 L 685.38 310.54 L 688.73 309.78 L 692.07 309.04 L 695.42 308.32 L 698.76 307.63 L 702.11 306.96 L 705.45 306.31 L 708.80 305.69 L 712.14 305.09 L 715.48 304.63 L 718.83 304.35 L 722.17 304.22 L 725.52 304.12 L 728.86 304.04 L 732.21 303.98 L 735.55 303.95 L 738.90 303.92 L 742.24 303.90 L 745.59 303.90 L 748.93 303.90 L 752.27 303.91 L 755.62 303.92 L 758.96 303.94 L 762.31 303.96 L 765.65 303.98 L 769.00 304.01 L 772.34 304.03 L 775.69 304.06 L 779.03 304.09 L 782.37 304.11 L 785.72 303.24 L 789.06 300.54 L 792.41 297.86 L 795.75 295.21 L 799.10 292.60 L 802.44 290.07 L 805.79 287.63 L 809.13 285.41 L 812.47 283.52 L 815.82 282.04 L 819.16 280.60 L 822.51 279.19 L 825.85 277.87 L 829.20 276.76 L 832.54 275.90 L 835.89 275.32 L 839.23 275.00 L 842.58 274.95 L 845.92 275.18 L 849.26 275.67 L 852.61 276.41 L 855.95 277.41 L 859.30 278.64 L 862.64 280.09 L 865.99 281.74 L 869.33 283.58 L 872.68 285.57 L 876.02 287.72 L 879.36 289.98 L 882.71 292.33 L 886.05 294.76 L 889.40 297.24 L 892.74 299.75 L 896.09 302.30 L 899.43 304.87 L 902.78 307.44 L 906.12 309.98 L 909.46 312.48 L 912.81 314.92 L 916.15 317.39 L 919.50 319.87 L 922.84 322.24 L 926.19 324.48 L 929.53 326.59 L 932.88 328.58 L 936.22 330.30 L 939.57 331.61 L 942.91 332.57 L 946.25 333.28 L 949.60 333.62 L 952.94 333.72 L 956.29 334.46 L 959.63 336.57 L 962.98 338.12 L 966.32 339.21 L 969.67 339.92 L 973.01 340.26 L 976.35 340.13 L 979.70 339.67 L 983.04 339.19 L 986.39 338.69 L 989.73 338.17 L 993.08 337.63 L 996.42 337.08 L 999.77 336.50 L 1003.11 335.91 L 1006.45 335.29 L 1009.80 334.66 L 1013.14 334.01 L 1016.49 333.34 L 1019.83 332.65 L 1023.18 331.94 L 1026.52 331.20 L 1029.87 330.41 L 1033.21 329.57 L 1036.56 328.69 L 1039.90 327.78 L 1043.24 326.85 L 1046.59 325.90 L 1049.93 324.94 L 1053.28 323.97 L 1056.62 323.00 L 1059.97 322.03 L 1063.31 321.06 L 1066.66 320.11 L 1070.00 319.16" fill="none" stroke="#1b7f79" stroke-width="3" />
  <path d="M 70.00 293.86 L 73.34 289.99 L 76.69 286.58 L 80.03 285.89 L 83.38 285.26 L 86.72 284.63 L 90.07 283.96 L 93.41 283.18 L 96.76 282.40 L 100.10 281.62 L 103.44 280.83 L 106.79 280.04 L 110.13 279.24 L 113.48 278.43 L 116.82 277.61 L 120.17 276.79 L 123.51 275.96 L 126.86 275.12 L 130.20 274.27 L 133.55 273.41 L 136.89 272.54 L 140.23 271.66 L 143.58 270.77 L 146.92 269.86 L 150.27 268.94 L 153.61 268.00 L 156.96 267.05 L 160.30 266.08 L 163.65 265.10 L 166.99 264.10 L 170.33 263.08 L 173.68 262.05 L 177.02 260.99 L 180.37 259.92 L 183.71 258.85 L 187.06 257.87 L 190.40 257.01 L 193.75 256.25 L 197.09 255.63 L 200.43 255.13 L 203.78 254.78 L 207.12 254.57 L 210.47 254.50 L 213.81 254.59 L 217.16 254.84 L 220.50 255.24 L 223.85 255.79 L 227.19 256.51 L 230.54 257.37 L 233.88 258.38 L 237.22 259.54 L 240.57 260.84 L 243.91 262.27 L 247.26 263.83 L 250.60 265.51 L 253.95 267.30 L 257.29 269.18 L 260.64 271.16 L 263.98 273.21 L 267.32 275.32 L 270.67 277.49 L 274.01 279.70 L 277.36 281.93 L 280.70 284.17 L 284.05 286.41 L 287.39 288.64 L 290.74 290.83 L 294.08 292.98 L 297.42 295.07 L 300.77 297.08 L 304.11 299.02 L 307.46 300.85 L 310.80 302.57 L 314.15 304.17 L 317.49 305.64 L 320.84 306.97 L 324.18 308.15 L 327.53 309.17 L 330.87 310.03 L 334.21 310.72 L 337.56 311.24 L 340.90 311.58 L 344.25 311.50 L 347.59 311.02 L 350.94 310.25 L 354.28 309.22 L 357.63 307.92 L 360.97 306.39 L 364.31 304.63 L 367.66 302.67 L 371.00 300.53 L 374.35 298.23 L 377.69 295.80 L 381.04 293.26 L 384.38 290.62 L 387.73 287.92 L 391.07 285.18 L 394.41 282.42 L 397.76 279.67 L 401.10 276.94 L 404.45 274.26 L 407.79 271.66 L 411.14 269.14 L 414.48 266.73 L 417.83 264.46 L 421.17 262.44 L 424.52 260.68 L 427.86 259.20 L 431.20 258.03 L 434.55 257.17 L 437.89 256.61 L 441.24 256.37 L 444.58 256.44 L 447.93 256.81 L 451.27 257.48 L 454.62 258.44 L 457.96 259.68 L 461.30 261.18 L 464.65 262.94 L 467.99 264.93 L 471.34 267.15 L 474.68 269.56 L 478.03 272.15 L 481.37 274.90 L 484.72 277.79 L 488.06 280.79 L 491.40 283.88 L 494.75 287.04 L 498.09 290.24 L 501.44 293.59 L 504.78 296.93 L 508.13 300.40 L 511.47 303.81 L 514.82 307.17 L 518.16 310.59 L 521.51 313.90 L 524.85 317.09 L 528.19 320.12 L 531.54 322.92 L 534.88 325.33 L 538.23 327.37 L 541.57 328.84 L 544.92 329.94 L 548.26 330.48 L 551.61 330.65 L 554.95 330.30 L 558.29 333.64 L 561.64 336.06 L 564.98 337.72 L 568.33 338.74 L 571.67 339.23 L 575.02 339.30 L 578.36 338.40 L 581.71 337.37 L 585.05 336.33 L 588.39 335.29 L 591.74 334.24 L 595.08 333.19 L 598.43 332.14 L 601.77 331.09 L 605.12 330.04 L 608.46 328.98 L 611.81 327.93 L 615.15 326.87 L 618.49 325.80 L 621.84 324.68 L 625.18 323.52 L 628.53 322.33 L 631.87 321.12 L 635.22 319.92 L 638.56 318.72 L 641.91 317.54 L 645.25 316.38 L 648.60 315.25 L 651.94 314.16 L 655.28 313.10 L 658.63 312.08 L 661.97 311.10 L 665.32 310.16 L 668.66 309.27 L 672.01 308.42 L 675.35 307.62 L 678.70 306.86 L 682.04 306.16 L 685.38 305.49 L 688.73 304.87 L 692.07 304.30 L 695.42 303.77 L 698.76 303.29 L 702.11 302.85 L 705.45 302.45 L 708.80 302.09 L 712.14 301.78 L 715.48 301.50 L 718.83 301.27 L 722.17 301.07 L 725.52 300.93 L 728.86 300.81 L 732.21 300.73 L 735.55 300.67 L 738.90 300.63 L 742.24 300.60 L 745.59 300.59 L 748.93 300.60 L 752.27 300.61 L 755.62 300.62 L 758.96 300.65 L 762.31 300.67 L 765.65 300.71 L 769.00 300.74 L 772.34 300.78 L 775.69 300.81 L 779.03 300.85 L 782.37 300.89 L 785.72 299.62 L 789.06 295.75 L 792.41 291.93 L 795.75 288.17 L 799.10 284.51 L 802.44 280.96 L 805.79 277.55 L 809.13 274.46 L 812.47 271.82 L 815.82 269.71 L 819.16 267.67 L 822.51 265.64 L 825.85 263.72 L 829.20 262.01 L 832.54 260.63 L 835.89 259.56 L 839.23 258.83 L 842.58 258.42 L 845.92 258.34 L 849.26 258.58 L 852.61 259.15 L 855.95 260.02 L 859.30 261.19 L 862.64 262.65 L 865.99 264.39 L 869.33 266.38 L 872.68 268.61 L 876.02 271.07 L 879.36 273.72 L 882.71 276.55 L 886.05 279.54 L 889.40 282.65 L 892.74 285.88 L 896.09 289.18 L 899.43 292.55 L 902.78 295.95 L 906.12 299.36 L 909.46 302.76 L 912.81 306.11 L 916.15 309.56 L 919.50 313.09 L 922.84 316.52 L 926.19 319.81 L 929.53 322.95 L 932.88 326.04 L 936.22 328.83 L 939.57 331.02 L 942.91 332.63 L 946.25 333.84 L 949.60 334.47 L 952.94 334.69 L 956.29 335.92 L 959.63 339.33 L 962.98 341.77 L 966.32 343.41 L 969.67 344.38 L 973.01 344.70 L 976.35 344.19 L 979.70 343.12 L 983.04 342.04 L 986.39 340.95 L 989.73 339.86 L 993.08 338.76 L 996.42 337.66 L 999.77 336.55 L 1003.11 335.44 L 1006.45 334.33 L 1009.80 333.22 L 1013.14 332.10 L 1016.49 330.98 L 1019.83 329.87 L 1023.18 328.75 L 1026.52 327.62 L 1029.87 326.44 L 1033.21 325.21 L 1036.56 323.96 L 1039.90 322.69 L 1043.24 321.41 L 1046.59 320.14 L 1049.93 318.89 L 1053.28 317.66 L 1056.62 316.46 L 1059.97 315.30 L 1063.31 314.17 L 1066.66 313.09 L 1070.00 312.05" fill="none" stroke="#cf5c36" stroke-width="3" />

  <circle cx="770" cy="48" r="5" fill="#1b7f79" /><text x="782" y="53" font-size="13" fill="#666055">Superorganism</text>
  <circle cx="900" cy="48" r="5" fill="#cf5c36" /><text x="912" y="53" font-size="13" fill="#666055">Complexity</text>

  <text x="70" y="494" font-size="12" fill="#666055">Tick 0</text>
  <text x="1040" y="494" font-size="12" fill="#666055">Tick 299</text>

  <text x="850" y="380" font-size="12" fill="#666055">Final modes (H/S/A)</text>
  
        <rect x="840" y="300" width="60" height="100" fill="#637d5f" rx="6" />
        <text x="870" y="424" text-anchor="middle" font-size="14" fill="#666055">H</text>
        <text x="870" y="294" text-anchor="middle" font-size="12" fill="#1f1f1f">3</text>
      

        <rect x="922" y="400" width="60" height="0" fill="#9e7c46" rx="6" />
        <text x="952" y="424" text-anchor="middle" font-size="14" fill="#666055">S</text>
        <text x="952" y="394" text-anchor="middle" font-size="12" fill="#1f1f1f">0</text>
      

        <rect x="1004" y="400" width="60" height="0" fill="#8a5a44" rx="6" />
        <text x="1034" y="424" text-anchor="middle" font-size="14" fill="#666055">A</text>
        <text x="1034" y="394" text-anchor="middle" font-size="12" fill="#1f1f1f">0</text>
      
</svg>