<?xml version="1.0" encoding="UTF-8"?>
<svg xmlns="http://www.w3.org/2000/svg" width="1100" height="520" viewBox="0 0 1100 520">
  <rect x="0" y="0" width="1100" height="520" fill="#fffdf7" />
  <rect x="18" y="18" width="1064" height="484" fill="none" stroke="#d8d1c0" rx="12" />

  <text x="40" y="48" font-size="28" font-family="Georgia, serif" fill="#1f1f1f">eco-stress fragile</text>
  <text x="40" y="74" font-size="14" font-family="Georgia, serif" fill="#666055">Superorganism Index vs Mean Local Complexity over time</text>
  <text x="40" y="96" font-size="13" font-family="Georgia, serif" fill="#666055">Behavior class: Unclassified</text>

  <line x1="70" y1="70" x2="70" y2="450" stroke="#ece5d7" />
  <line x1="70" y1="450" x2="1070" y2="450" stroke="#ece5d7" />
  
        <line x1="70" y1="70" x2="1070" y2="70" stroke="#ece5d7" stroke-dasharray="4,4" />
        <text x="56" y="74" text-anchor="end" font-size="12" fill="#666055">1.0</text>
      

        <line x1="70" y1="260" x2="1070" y2="260" stroke="#ece5d7" stroke-dasharray="4,4" />
        <text x="56" y="264" text-anchor="end" font-size="12" fill="#666055">0.5</text>
      

        <line x1="70" y1="450" x2="1070" y2="450" stroke="#ece5d7" stroke-dasharray="4,4" />
        <text x="56" y="454" text-anchor="end" font-size="12" fill="#666055">0.0</text>
      

  <path d="M 70.00 219.69 L 73.34 255.98 L 76.69 257.45 L 80.03 257.96 L 83.38 296.94 L 86.72 295.35 L 90.07 293.70 L 93.41 290.86 L 96.76 287.98 L 100.10 285.05 L 103.44 282.06 L 106.79 279.01 L 110.13 275.90 L 113.48 272.73 L 116.82 271.48 L 120.17 270.22 L 123.51 268.89 L 126.86 267.87 L 130.20 266.85 L 133.55 265.84 L 136.89 264.83 L 140.23 263.84 L 143.58 262.83 L 146.92 261.82 L 150.27 260.80 L 153.61 259.79 L 156.96 258.80 L 160.30 257.84 L 163.65 256.89 L 166.99 256.33 L 170.33 255.92 L 173.68 255.55 L 177.02 255.22 L 180.37 254.92 L 183.71 254.67 L 187.06 254.44 L 190.40 254.24 L 193.75 254.07 L 197.09 253.93 L 200.43 253.80 L 203.78 253.74 L 207.12 241.44 L 210.47 242.00 L 213.81 242.72 L 217.16 243.51 L 220.50 244.36 L 223.85 245.26 L 227.19 246.19 L 230.54 247.17 L 233.88 248.15 L 237.22 249.13 L 240.57 250.10 L 243.91 251.06 L 247.26 252.02 L 250.60 263.51 L 253.95 263.81 L 257.29 264.04 L 260.64 264.18 L 263.98 264.21 L 267.32 264.18 L 270.67 264.13 L 274.01 264.08 L 277.36 264.01 L 280.70 263.94 L 284.05 263.86 L 287.39 263.78 L 290.74 263.70 L 294.08 263.61 L 297.42 263.52 L 300.77 263.44 L 304.11 263.35 L 307.46 263.27 L 310.80 263.16 L 314.15 263.06 L 317.49 262.95 L 320.84 262.85 L 324.18 262.75 L 327.53 262.66 L 330.87 262.56 L 334.21 262.47 L 337.56 262.38 L 340.90 262.30 L 344.25 262.23 L 347.59 262.16 L 350.94 262.10 L 354.28 262.04 L 357.63 261.98 L 360.97 261.92 L 364.31 261.87 L 367.66 261.82 L 371.00 261.77 L 374.35 261.72 L 377.69 261.67 L 381.04 261.62 L 384.38 261.58 L 387.73 261.54 L 391.07 261.50 L 394.41 261.46 L 397.76 261.42 L 401.10 261.38 L 404.45 261.34 L 407.79 261.30 L 411.14 261.27 L 414.48 261.24 L 417.83 261.21 L 421.17 261.19 L 424.52 261.16 L 427.86 261.14 L 431.20 261.13 L 434.55 261.11 L 437.89 261.10 L 441.24 261.09 L 444.58 261.08 L 447.93 261.08 L 451.27 261.07 L 454.62 261.07 L 457.96 261.05 L 461.30 261.03 L 464.65 261.01 L 467.99 260.99 L 471.34 260.98 L 474.68 260.96 L 478.03 260.95 L 481.37 260.94 L 484.72 260.94 L 488.06 260.93 L 491.40 260.93 L 494.75 260.92 L 498.09 260.92 L 501.44 260.92 L 504.78 260.92 L 508.13 260.93 L 511.47 260.93 L 514.82 260.94 L 518.16 260.94 L 521.51 260.95 L 524.85 260.96 L 528.19 260.97 L 531.54 260.98 L 534.88 261.01 L 538.23 261.03 L 541.57 261.05 L 544.92 261.08 L 548.26 261.11 L 551.61 261.13 L 554.95 261.16 L 558.29 261.19 L 561.64 261.21 L 564.98 261.24 L 568.33 261.27 L 571.67 261.30 L 575.02 261.33 L 578.36 261.36 L 581.71 261.39 L 585.05 261.42 L 588.39 261.45 L 591.74 261.48 L 595.08 261.52 L 598.43 261.55 L 601.77 261.58 L 605.12 261.61 L 608.46 261.65 L 611.81 261.68 L 615.15 261.71 L 618.49 261.75 L 621.84 261.78 L 625.18 261.82 L 628.53 261.85 L 631.87 261.89 L 635.22 261.92 L 638.56 261.96 L 641.91 261.99 L 645.25 262.03 L 648.60 262.06 L 651.94 262.10 L 655.28 262.14 L 658.63 262.17 L 661.97 262.21 L 665.32 262.25 L 668.66 262.28 L 672.01 262.32 L 675.35 262.36 L 678.70 262.40 L 682.04 262.43 L 685.38 262.47 L 688.73 262.51 L 692.07 262.55 L 695.42 262.59 L 698.76 262.63 L 702.11 262.66 L 705.45 262.70 L 708.80 262.74 L 712.14 262.78 L 715.48 262.82 L 718.83 262.86 L 722.17 262.90 L 725.52 262.94 L 728.86 262.98 L 732.21 263.02 L 735.55 263.06 L 738.90 263.10 L 742.24 263.14 L 745.59 263.18 L 748.93 263.22 L 752.27 263.26 L 755.62 263.31 L 758.96 263.35 L 762.31 263.39 L 765.65 263.43 L 769.00 263.47 L 772.34 263.51 L 775.69 263.56 L 779.03 263.60 L 782.37 263.64 L 785.72 263.68 L 789.06 263.72 L 792.41 263.77 L 795.75 263.81 L 799.10 263.85 L 802.44 263.90 L 805.79 263.94 L 809.13 263.98 L 812.47 264.03 L 815.82 264.07 L 819.16 264.11 L 822.51 264.16 L 825.85 264.20 L 829.20 264.25 L 832.54 264.29 L 835.89 264.33 L 839.23 264.38 L 842.58 264.42 L 845.92 264.47 L 849.26 264.51 L 852.61 264.56 L 855.95 264.60 L 859.30 264.62 L 862.64 264.63 L 865.99 264.64 L 869.33 264.65 L 872.68 264.66 L 876.02 264.68 L 879.36 264.69 L 882.71 264.70 L 886.05 264.72 L 889.40 264.73 L 892.74 264.74 L 896.09 264.76 L 899.43 264.77 L 902.78 264.79 L 906.12 264.80 L 909.46 264.82 L 912.81 264.84 L 916.15 264.85 L 919.50 264.87 L 922.84 264.89 L 926.19 264.91 L 929.53 264.92 L 932.88 264.94 L 936.22 264.96 L 939.57 264.98 L 942.91 265.00 L 946.25 265.02 L 949.60 265.04 L 952.94 265.06 L 956.29 265.08 L 959.63 265.10 L 962.98 265.12 L 966.32 265.14 L 969.67 265.16 L 973.01 265.18 L 976.35 265.20 L 979.70 265.22 L 983.04 265.24 L 986.39 265.26 L 989.73 265.29 L 993.08 265.31 L 996.42 265.33 L 999.77 265.35 L 1003.11 265.37 L 1006.45 265.40 L 1009.80 265.42 L 1013.14 265.44 L 1016.49 265.46 L 1019.83 265.49 L 1023.18 265.51 L 1026.52 265.53 L 1029.87 265.56 L 1033.21 265.58 L 1036.56 265.60 L 1039.90 265.63 L 1043.24 265.65 L 1046.59 265.67 L 1049.93 265.70 L 1053.28 265.72 L 1056.62 265.74 L 1059.97 265.77 L 1063.31 265.79 L 1066.66 265.82 L 1070.00 265.84" fill="none" stroke="#1b7f79" stroke-width="3" />
  <path d="M 70.00 185.06 L 73.34 246.93 L 76.69 248.61 L 80.03 249.62 L 83.38 277.54 L 86.72 276.21 L 90.07 275.01 L 93.41 272.36 L 96.76 269.70 L 100.10 267.04 L 103.44 264.37 L 106.79 261.64 L 110.13 258.90 L 113.48 256.15 L 116.82 254.55 L 120.17 252.83 L 123.51 250.99 L 126.86 250.31 L 130.20 249.67 L 133.55 249.07 L 136.89 248.51 L 140.23 247.99 L 143.58 247.49 L 146.92 247.00 L 150.27 246.53 L 153.61 246.09 L 156.96 245.69 L 160.30 245.33 L 163.65 245.00 L 166.99 244.71 L 170.33 244.49 L 173.68 244.31 L 177.02 244.19 L 180.37 244.11 L 183.71 244.07 L 187.06 244.07 L 190.40 244.10 L 193.75 244.17 L 197.09 244.26 L 200.43 244.38 L 203.78 244.52 L 207.12 203.99 L 210.47 205.28 L 213.81 206.72 L 217.16 208.26 L 220.50 209.86 L 223.85 211.52 L 227.19 213.20 L 230.54 214.92 L 233.88 216.63 L 237.22 218.33 L 240.57 220.01 L 243.91 221.66 L 247.26 223.30 L 250.60 266.53 L 253.95 267.78 L 257.29 268.69 L 260.64 269.36 L 263.98 269.59 L 267.32 269.59 L 270.67 269.57 L 274.01 269.54 L 277.36 269.51 L 280.70 269.47 L 284.05 269.42 L 287.39 269.38 L 290.74 269.33 L 294.08 269.27 L 297.42 269.22 L 300.77 269.17 L 304.11 269.12 L 307.46 269.07 L 310.80 269.01 L 314.15 268.95 L 317.49 268.89 L 320.84 268.83 L 324.18 268.78 L 327.53 268.73 L 330.87 268.68 L 334.21 268.63 L 337.56 268.59 L 340.90 268.54 L 344.25 268.43 L 347.59 268.32 L 350.94 268.22 L 354.28 268.11 L 357.63 268.01 L 360.97 267.90 L 364.31 267.80 L 367.66 267.70 L 371.00 267.60 L 374.35 267.51 L 377.69 267.41 L 381.04 267.32 L 384.38 267.22 L 387.73 267.13 L 391.07 267.03 L 394.41 266.92 L 397.76 266.81 L 401.10 266.70 L 404.45 266.59 L 407.79 266.48 L 411.14 266.37 L 414.48 266.27 L 417.83 266.17 L 421.17 266.07 L 424.52 265.98 L 427.86 265.90 L 431.20 265.82 L 434.55 265.75 L 437.89 265.69 L 441.24 265.63 L 444.58 265.58 L 447.93 265.53 L 451.27 265.49 L 454.62 265.46 L 457.96 265.42 L 461.30 265.38 L 464.65 265.35 L 467.99 265.32 L 471.34 265.30 L 474.68 265.29 L 478.03 265.28 L 481.37 265.27 L 484.72 265.27 L 488.06 265.28 L 491.40 265.29 L 494.75 265.30 L 498.09 265.32 L 501.44 265.34 L 504.78 265.37 L 508.13 265.40 L 511.47 265.44 L 514.82 265.48 L 518.16 265.52 L 521.51 265.57 L 524.85 265.62 L 528.19 265.67 L 531.54 265.73 L 534.88 265.69 L 538.23 265.65 L 541.57 265.61 L 544.92 265.58 L 548.26 265.55 L 551.61 265.52 L 554.95 265.49 L 558.29 265.47 L 561.64 265.44 L 564.98 265.42 L 568.33 265.40 L 571.67 265.38 L 575.02 265.36 L 578.36 265.35 L 581.71 265.33 L 585.05 265.32 L 588.39 265.30 L 591.74 265.29 L 595.08 265.28 L 598.43 265.27 L 601.77 265.26 L 605.12 265.26 L 608.46 265.25 L 611.81 265.24 L 615.15 265.24 L 618.49 265.23 L 621.84 265.23 L 625.18 265.23 L 628.53 265.23 L 631.87 265.23 L 635.22 265.22 L 638.56 265.22 L 641.91 265.23 L 645.25 265.23 L 648.60 265.23 L 651.94 265.23 L 655.28 265.23 L 658.63 265.24 L 661.97 265.24 L 665.32 265.25 L 668.66 265.25 L 672.01 265.26 L 675.35 265.26 L 678.70 265.27 L 682.04 265.28 L 685.38 265.28 L 688.73 265.29 L 692.07 265.30 L 695.42 265.31 L 698.76 265.31 L 702.11 265.32 L 705.45 265.33 L 708.80 265.34 L 712.14 265.35 L 715.48 265.36 L 718.83 265.37 L 722.17 265.38 L 725.52 265.39 L 728.86 265.40 L 732.21 265.41 L 735.55 265.42 L 738.90 265.44 L 742.24 265.45 L 745.59 265.46 L 748.93 265.47 L 752.27 265.48 L 755.62 265.50 L 758.96 265.51 L 762.31 265.52 L 765.65 265.54 L 769.00 265.55 L 772.34 265.56 L 775.69 265.58 L 779.03 265.59 L 782.37 265.61 L 785.72 265.62 L 789.06 265.63 L 792.41 265.65 L 795.75 265.66 L 799.10 265.68 L 802.44 265.69 L 805.79 265.71 L 809.13 265.72 L 812.47 265.74 L 815.82 265.75 L 819.16 265.77 L 822.51 265.79 L 825.85 265.80 L 829.20 265.82 L 832.54 265.83 L 835.89 265.85 L 839.23 265.87 L 842.58 265.88 L 845.92 265.90 L 849.26 265.92 L 852.61 265.93 L 855.95 265.95 L 859.30 265.94 L 862.64 265.94 L 865.99 265.94 L 869.33 265.93 L 872.68 265.93 L 876.02 265.92 L 879.36 265.92 L 882.71 265.92 L 886.05 265.92 L 889.40 265.91 L 892.74 265.91 L 896.09 265.91 L 899.43 265.91 L 902.78 265.91 L 906.12 265.91 L 909.46 265.91 L 912.81 265.91 L 916.15 265.91 L 919.50 265.92 L 922.84 265.92 L 926.19 265.92 L 929.53 265.92 L 932.88 265.92 L 936.22 265.93 L 939.57 265.93 L 942.91 265.93 L 946.25 265.94 L 949.60 265.94 L 952.94 265.95 L 956.29 265.95 L 959.63 265.96 L 962.98 265.96 L 966.32 265.97 L 969.67 265.97 L 973.01 265.98 L 976.35 265.98 L 979.70 265.99 L 983.04 266.00 L 986.39 266.00 L 989.73 266.01 L 993.08 266.02 L 996.42 266.02 L 999.77 266.03 L 1003.11 266.04 L 1006.45 266.04 L 1009.80 266.05 L 1013.14 266.06 L 1016.49 266.07 L 1019.83 266.07 L 1023.18 266.08 L 1026.52 266.09 L 1029.87 266.10 L 1033.21 266.11 L 1036.56 266.11 L 1039.90 266.12 L 1043.24 266.13 L 1046.59 266.14 L 1049.93 266.15 L 1053.28 266.16 L 1056.62 266.17 L 1059.97 266.17 L 1063.31 266.18 L 1066.66 266.19 L 1070.00 266.20" fill="none" stroke="#cf5c36" stroke-width="3" />

  <circle cx="770" cy="48" r="5" fill="#1b7f79" /><text x="782" y="53" font-size="13" fill="#666055">Superorganism</text>
  <circle cx="900" cy="48" r="5" fill="#cf5c36" /><text x="912" y="53" font-size="13" fill="#666055">Complexity</text>

  <text x="70" y="494" font-size="12" fill="#666055">Tick 0</text>
  <text x="1040" y="494" font-size="12" fill="#666055">Tick 299</text>

  <text x="850" y="380" font-size="12" fill="#666055">Final modes (H/S/A)</text>
  
        <rect x="840" y="300" width="60" height="100" fill="#637d5f" rx="6" />
        <text x="870" y="424" text-anchor="middle" font-size="14" fill="#666055">H</text>
        <text x="870" y="294" text-anchor="middle" font-size="12" fill="#1f1f1f">2</text>
      

        <rect x="922" y="400" width="60" height="0" fill="#9e7c46" rx="6" />
        <text x="952" y="424" text-anchor="middle" font-size="14" fill="#666055">S</text>
        <text x="952" y="394" text-anchor="middle" font-size="12" fill="#1f1f1f">0</text>
      

        <rect x="1004" y="400" width="60" height="0" fill="#8a5a44" rx="6" />
        <text x="1034" y="424" text-anchor="middle" font-size="14" fill="#666055">A</text>
        <text x="1034" y="394" text-anchor="middle" font-size="12" fill="#1f1f1f">0</text>
      
</svg>