<?xml version="1.0" encoding="UTF-8"?>
<svg xmlns="http://www.w3.org/2000/svg" width="1100" height="520" viewBox="0 0 1100 520">
  <rect x="0" y="0" width="1100" height="520" fill="#fffdf7" />
  <rect x="18" y="18" width="1064" height="484" fill="none" stroke="#d8d1c0" rx="12" />

  <text x="40" y="48" font-size="28" font-family="Georgia, serif" fill="#1f1f1f">baseline default</text>
  <text x="40" y="74" font-size="14" font-family="Georgia, serif" fill="#666055">Superorganism Index vs Mean Local Complexity over time</text>

  <line x1="70" y1="70" x2="70" y2="450" stroke="#ece5d7" />
  <line x1="70" y1="450" x2="1070" y2="450" stroke="#ece5d7" />

  <path d="M 70.00 200.34 L 73.34 201.96 L 76.69 196.94 L 80.03 199.70 L 83.38 202.95 L 86.72 206.69 L 90.07 210.90 L 93.41 215.54 L 96.76 220.61 L 100.10 226.07 L 103.44 231.91 L 106.79 234.52 L 110.13 235.22 L 113.48 236.02 L 116.82 236.94 L 120.17 237.95 L 123.51 239.05 L 126.86 240.22 L 130.20 241.45 L 133.55 242.75 L 136.89 243.21 L 140.23 243.68 L 143.58 244.20 L 146.92 244.31 L 150.27 244.34 L 153.61 244.47 L 156.96 244.64 L 160.30 244.83 L 163.65 245.04 L 166.99 245.36 L 170.33 245.69 L 173.68 246.02 L 177.02 246.37 L 180.37 246.71 L 183.71 247.06 L 187.06 247.40 L 190.40 247.74 L 193.75 247.90 L 197.09 248.02 L 200.43 248.14 L 203.78 248.26 L 207.12 248.37 L 210.47 248.49 L 213.81 248.60 L 217.16 248.71 L 220.50 248.82 L 223.85 248.92 L 227.19 249.03 L 230.54 249.13 L 233.88 249.25 L 237.22 249.35 L 240.57 249.46 L 243.91 249.57 L 247.26 249.68 L 250.60 249.78 L 253.95 249.88 L 257.29 249.98 L 260.64 250.08 L 263.98 250.18 L 267.32 250.28 L 270.67 250.37 L 274.01 250.46 L 277.36 250.54 L 280.70 250.61 L 284.05 250.67 L 287.39 250.73 L 290.74 258.79 L 294.08 258.77 L 297.42 258.69 L 300.77 258.49 L 304.11 258.24 L 307.46 257.99 L 310.80 257.75 L 314.15 257.51 L 317.49 261.75 L 320.84 261.54 L 324.18 261.32 L 327.53 261.03 L 330.87 260.78 L 334.21 260.53 L 337.56 260.29 L 340.90 260.05 L 344.25 259.81 L 347.59 259.57 L 350.94 259.33 L 354.28 259.09 L 357.63 258.86 L 360.97 258.62 L 364.31 258.38 L 367.66 258.14 L 371.00 257.88 L 374.35 257.63 L 377.69 257.36 L 381.04 257.17 L 384.38 256.97 L 387.73 256.78 L 391.07 256.58 L 394.41 256.38 L 397.76 256.18 L 401.10 256.01 L 404.45 255.85 L 407.79 255.69 L 411.14 255.54 L 414.48 246.31 L 417.83 246.46 L 421.17 246.67 L 424.52 246.94 L 427.86 247.26 L 431.20 247.64 L 434.55 248.07 L 437.89 248.55 L 441.24 249.08 L 444.58 249.65 L 447.93 250.26 L 451.27 250.89 L 454.62 251.55 L 457.96 252.22 L 461.30 252.40 L 464.65 252.52 L 467.99 252.66 L 471.34 252.82 L 474.68 252.98 L 478.03 253.16 L 481.37 253.35 L 484.72 253.56 L 488.06 253.78 L 491.40 254.00 L 494.75 254.24 L 498.09 254.48 L 501.44 254.74 L 504.78 255.00 L 508.13 255.27 L 511.47 255.54 L 514.82 255.81 L 518.16 255.93 L 521.51 256.03 L 524.85 256.23 L 528.19 256.33 L 531.54 256.41 L 534.88 256.58 L 538.23 256.75 L 541.57 256.92 L 544.92 257.07 L 548.26 257.21 L 551.61 257.34 L 554.95 257.46 L 558.29 257.57 L 561.64 257.68 L 564.98 264.19 L 568.33 264.22 L 571.67 264.21 L 575.02 264.08 L 578.36 263.93 L 581.71 263.73 L 585.05 263.63 L 588.39 263.53 L 591.74 263.42 L 595.08 263.31 L 598.43 263.20 L 601.77 263.08 L 605.12 262.95 L 608.46 262.82 L 611.81 262.69 L 615.15 262.55 L 618.49 262.41 L 621.84 262.24 L 625.18 262.07 L 628.53 261.90 L 631.87 261.82 L 635.22 261.73 L 638.56 261.65 L 641.91 261.55 L 645.25 261.44 L 648.60 261.32 L 651.94 261.20 L 655.28 261.07 L 658.63 260.93 L 661.97 260.80 L 665.32 260.66 L 668.66 260.52 L 672.01 260.39 L 675.35 260.26 L 678.70 260.14 L 682.04 260.03 L 685.38 259.93 L 688.73 259.84 L 692.07 259.77 L 695.42 259.71 L 698.76 259.67 L 702.11 259.66 L 705.45 259.66 L 708.80 259.69 L 712.14 259.74 L 715.48 259.82 L 718.83 259.93 L 722.17 260.06 L 725.52 260.22 L 728.86 260.41 L 732.21 260.63 L 735.55 260.88 L 738.90 261.16 L 742.24 261.46 L 745.59 261.79 L 748.93 262.15 L 752.27 262.52 L 755.62 262.93 L 758.96 263.35 L 762.31 263.79 L 765.65 264.25 L 769.00 264.73 L 772.34 265.22 L 775.69 265.64 L 779.03 266.07 L 782.37 266.50 L 785.72 266.92 L 789.06 267.25 L 792.41 267.58 L 795.75 267.89 L 799.10 268.19 L 802.44 268.48 L 805.79 268.75 L 809.13 269.01 L 812.47 269.24 L 815.82 269.46 L 819.16 269.65 L 822.51 269.82 L 825.85 269.97 L 829.20 270.10 L 832.54 270.20 L 835.89 270.28 L 839.23 270.33 L 842.58 270.49 L 845.92 270.63 L 849.26 270.74 L 852.61 270.83 L 855.95 270.90 L 859.30 270.94 L 862.64 270.94 L 865.99 270.92 L 869.33 270.89 L 872.68 270.85 L 876.02 270.78 L 879.36 270.70 L 882.71 270.60 L 886.05 270.45 L 889.40 270.30 L 892.74 270.14 L 896.09 269.97 L 899.43 269.79 L 902.78 269.60 L 906.12 269.40 L 909.46 269.19 L 912.81 268.97 L 916.15 268.75 L 919.50 268.52 L 922.84 268.29 L 926.19 268.06 L 929.53 267.84 L 932.88 267.61 L 936.22 267.40 L 939.57 267.19 L 942.91 267.00 L 946.25 266.83 L 949.60 266.66 L 952.94 266.52 L 956.29 266.40 L 959.63 266.31 L 962.98 266.24 L 966.32 266.20 L 969.67 266.18 L 973.01 266.20 L 976.35 266.25 L 979.70 266.33 L 983.04 266.44 L 986.39 266.59 L 989.73 266.77 L 993.08 266.99 L 996.42 267.23 L 999.77 267.51 L 1003.11 267.82 L 1006.45 268.16 L 1009.80 268.52 L 1013.14 268.92 L 1016.49 269.33 L 1019.83 269.77 L 1023.18 270.22 L 1026.52 270.70 L 1029.87 271.18 L 1033.21 271.68 L 1036.56 272.19 L 1039.90 272.70 L 1043.24 273.21 L 1046.59 273.73 L 1049.93 274.24 L 1053.28 274.74 L 1056.62 275.24 L 1059.97 275.72 L 1063.31 276.19 L 1066.66 276.65 L 1070.00 277.09" fill="none" stroke="#1b7f79" stroke-width="3" />
  <path d="M 70.00 212.13 L 73.34 212.52 L 76.69 191.24 L 80.03 192.33 L 83.38 193.83 L 86.72 195.50 L 90.07 197.35 L 93.41 199.37 L 96.76 201.58 L 100.10 203.95 L 103.44 206.49 L 106.79 208.22 L 110.13 209.56 L 113.48 211.02 L 116.82 212.62 L 120.17 214.33 L 123.51 216.15 L 126.86 218.08 L 130.20 220.12 L 133.55 222.31 L 136.89 223.67 L 140.23 225.07 L 143.58 226.56 L 146.92 227.25 L 150.27 227.84 L 153.61 228.48 L 156.96 229.20 L 160.30 229.99 L 163.65 230.85 L 166.99 231.77 L 170.33 232.88 L 173.68 234.07 L 177.02 235.34 L 180.37 236.67 L 183.71 238.07 L 187.06 239.53 L 190.40 241.04 L 193.75 241.87 L 197.09 242.59 L 200.43 243.31 L 203.78 244.02 L 207.12 244.73 L 210.47 245.44 L 213.81 246.16 L 217.16 246.88 L 220.50 247.61 L 223.85 248.33 L 227.19 249.07 L 230.54 249.80 L 233.88 250.51 L 237.22 251.22 L 240.57 251.94 L 243.91 252.66 L 247.26 253.38 L 250.60 254.11 L 253.95 254.84 L 257.29 255.66 L 260.64 256.50 L 263.98 257.34 L 267.32 258.18 L 270.67 259.03 L 274.01 259.85 L 277.36 260.66 L 280.70 261.50 L 284.05 262.30 L 287.39 263.06 L 290.74 285.89 L 294.08 286.79 L 297.42 287.35 L 300.77 287.45 L 304.11 287.36 L 307.46 287.27 L 310.80 287.25 L 314.15 287.26 L 317.49 310.38 L 320.84 310.26 L 324.18 310.09 L 327.53 309.42 L 330.87 308.68 L 334.21 307.94 L 337.56 307.20 L 340.90 306.47 L 344.25 305.74 L 347.59 305.01 L 350.94 304.28 L 354.28 303.56 L 357.63 302.82 L 360.97 302.07 L 364.31 301.30 L 367.66 300.48 L 371.00 299.64 L 374.35 298.76 L 377.69 297.86 L 381.04 296.83 L 384.38 295.79 L 387.73 294.73 L 391.07 293.66 L 394.41 292.56 L 397.76 291.45 L 401.10 290.27 L 404.45 289.08 L 407.79 287.91 L 411.14 286.76 L 414.48 263.91 L 417.83 263.26 L 421.17 262.92 L 424.52 262.75 L 427.86 262.68 L 431.20 262.70 L 434.55 262.83 L 437.89 263.05 L 441.24 263.36 L 444.58 263.77 L 447.93 264.30 L 451.27 264.91 L 454.62 265.61 L 457.96 266.39 L 461.30 266.55 L 464.65 266.67 L 467.99 266.87 L 471.34 267.13 L 474.68 267.47 L 478.03 267.86 L 481.37 268.32 L 484.72 268.85 L 488.06 269.43 L 491.40 270.06 L 494.75 270.75 L 498.09 271.49 L 501.44 272.27 L 504.78 273.14 L 508.13 274.10 L 511.47 275.09 L 514.82 276.10 L 518.16 277.40 L 521.51 278.72 L 524.85 279.89 L 528.19 281.23 L 531.54 282.57 L 534.88 283.73 L 538.23 284.89 L 541.57 286.02 L 544.92 287.14 L 548.26 288.23 L 551.61 289.28 L 554.95 290.30 L 558.29 291.28 L 561.64 292.29 L 564.98 316.49 L 568.33 317.48 L 571.67 318.34 L 575.02 318.68 L 578.36 318.91 L 581.71 318.82 L 585.05 318.55 L 588.39 318.24 L 591.74 317.89 L 595.08 317.52 L 598.43 317.10 L 601.77 316.65 L 605.12 316.17 L 608.46 315.65 L 611.81 315.10 L 615.15 314.51 L 618.49 313.84 L 621.84 313.04 L 625.18 312.22 L 628.53 311.39 L 631.87 310.43 L 635.22 309.46 L 638.56 308.46 L 641.91 307.42 L 645.25 306.32 L 648.60 305.19 L 651.94 304.03 L 655.28 302.85 L 658.63 301.64 L 661.97 300.44 L 665.32 299.23 L 668.66 298.02 L 672.01 296.84 L 675.35 295.68 L 678.70 294.55 L 682.04 293.46 L 685.38 292.42 L 688.73 291.43 L 692.07 290.50 L 695.42 289.64 L 698.76 288.85 L 702.11 288.14 L 705.45 287.51 L 708.80 286.97 L 712.14 286.53 L 715.48 286.18 L 718.83 285.92 L 722.17 285.77 L 725.52 285.72 L 728.86 285.77 L 732.21 285.92 L 735.55 286.17 L 738.90 286.53 L 742.24 286.98 L 745.59 287.53 L 748.93 288.17 L 752.27 288.89 L 755.62 289.71 L 758.96 290.60 L 762.31 291.56 L 765.65 292.60 L 769.00 293.69 L 772.34 294.83 L 775.69 296.14 L 779.03 297.48 L 782.37 298.86 L 785.72 300.26 L 789.06 301.66 L 792.41 303.07 L 795.75 304.48 L 799.10 305.87 L 802.44 307.25 L 805.79 308.61 L 809.13 309.93 L 812.47 311.21 L 815.82 312.44 L 819.16 313.61 L 822.51 314.72 L 825.85 315.76 L 829.20 316.72 L 832.54 317.60 L 835.89 318.40 L 839.23 319.11 L 842.58 319.56 L 845.92 319.91 L 849.26 320.16 L 852.61 320.30 L 855.95 320.33 L 859.30 320.25 L 862.64 319.96 L 865.99 319.61 L 869.33 319.18 L 872.68 318.67 L 876.02 318.10 L 879.36 317.44 L 882.71 316.68 L 886.05 315.70 L 889.40 314.70 L 892.74 313.68 L 896.09 312.64 L 899.43 311.55 L 902.78 310.41 L 906.12 309.22 L 909.46 307.99 L 912.81 306.73 L 916.15 305.45 L 919.50 304.16 L 922.84 302.86 L 926.19 301.56 L 929.53 300.28 L 932.88 299.02 L 936.22 297.79 L 939.57 296.60 L 942.91 295.45 L 946.25 294.36 L 949.60 293.33 L 952.94 292.37 L 956.29 291.48 L 959.63 290.68 L 962.98 289.96 L 966.32 289.33 L 969.67 288.81 L 973.01 288.38 L 976.35 288.06 L 979.70 287.85 L 983.04 287.74 L 986.39 287.75 L 989.73 287.86 L 993.08 288.09 L 996.42 288.42 L 999.77 288.86 L 1003.11 289.41 L 1006.45 290.06 L 1009.80 290.81 L 1013.14 291.65 L 1016.49 292.58 L 1019.83 293.59 L 1023.18 294.68 L 1026.52 295.83 L 1029.87 297.05 L 1033.21 298.32 L 1036.56 299.64 L 1039.90 300.99 L 1043.24 302.37 L 1046.59 303.77 L 1049.93 305.18 L 1053.28 306.59 L 1056.62 307.99 L 1059.97 309.37 L 1063.31 310.72 L 1066.66 312.03 L 1070.00 313.30" fill="none" stroke="#cf5c36" stroke-width="3" />

  <circle cx="770" cy="48" r="5" fill="#1b7f79" /><text x="782" y="53" font-size="13" fill="#666055">Superorganism</text>
  <circle cx="900" cy="48" r="5" fill="#cf5c36" /><text x="912" y="53" font-size="13" fill="#666055">Complexity</text>

  <text x="70" y="494" font-size="12" fill="#666055">Tick 0</text>
  <text x="1040" y="494" font-size="12" fill="#666055">Tick 299</text>

  <text x="850" y="380" font-size="12" fill="#666055">Final modes (H/S/A)</text>
  
        <rect x="840" y="300" width="60" height="100" fill="#637d5f" rx="6" />
        <text x="870" y="424" text-anchor="middle" font-size="14" fill="#666055">H</text>
        <text x="870" y="294" text-anchor="middle" font-size="12" fill="#1f1f1f">3</text>
      

        <rect x="922" y="400" width="60" height="0" fill="#9e7c46" rx="6" />
        <text x="952" y="424" text-anchor="middle" font-size="14" fill="#666055">S</text>
        <text x="952" y="394" text-anchor="middle" font-size="12" fill="#1f1f1f">0</text>
      

        <rect x="1004" y="366.6666666666667" width="60" height="33.33333333333333" fill="#8a5a44" rx="6" />
        <text x="1034" y="424" text-anchor="middle" font-size="14" fill="#666055">A</text>
        <text x="1034" y="360.6666666666667" text-anchor="middle" font-size="12" fill="#1f1f1f">1</text>
      
</svg>