<?xml version="1.0" encoding="UTF-8"?>
<svg xmlns="http://www.w3.org/2000/svg" width="1100" height="520" viewBox="0 0 1100 520">
  <rect x="0" y="0" width="1100" height="520" fill="#fffdf7" />
  <rect x="18" y="18" width="1064" height="484" fill="none" stroke="#d8d1c0" rx="12" />

  <text x="40" y="48" font-size="28" font-family="Georgia, serif" fill="#1f1f1f">eco-stress fragile</text>
  <text x="40" y="74" font-size="14" font-family="Georgia, serif" fill="#666055">Superorganism Index vs Mean Local Complexity over time</text>
  <text x="40" y="96" font-size="13" font-family="Georgia, serif" fill="#666055">Behavior class: Overshoot and correction</text>

  <line x1="70" y1="70" x2="70" y2="450" stroke="#ece5d7" />
  <line x1="70" y1="450" x2="1070" y2="450" stroke="#ece5d7" />
  
        <line x1="70" y1="70" x2="1070" y2="70" stroke="#ece5d7" stroke-dasharray="4,4" />
        <text x="56" y="74" text-anchor="end" font-size="12" fill="#666055">1.0</text>
      

        <line x1="70" y1="260" x2="1070" y2="260" stroke="#ece5d7" stroke-dasharray="4,4" />
        <text x="56" y="264" text-anchor="end" font-size="12" fill="#666055">0.5</text>
      

        <line x1="70" y1="450" x2="1070" y2="450" stroke="#ece5d7" stroke-dasharray="4,4" />
        <text x="56" y="454" text-anchor="end" font-size="12" fill="#666055">0.0</text>
      

  <path d="M 70.00 219.69 L 73.34 256.00 L 76.69 257.54 L 80.03 259.01 L 83.38 260.17 L 86.72 299.40 L 90.07 298.65 L 93.41 297.66 L 96.76 295.69 L 100.10 293.67 L 103.44 291.62 L 106.79 289.53 L 110.13 287.40 L 113.48 285.23 L 116.82 283.02 L 120.17 280.77 L 123.51 278.48 L 126.86 276.15 L 130.20 273.78 L 133.55 271.37 L 136.89 268.88 L 140.23 266.33 L 143.58 263.72 L 146.92 260.97 L 150.27 258.08 L 153.61 255.05 L 156.96 251.93 L 160.30 248.72 L 163.65 232.94 L 166.99 229.86 L 170.33 227.49 L 173.68 175.63 L 177.02 177.21 L 180.37 179.37 L 183.71 155.51 L 187.06 162.43 L 190.40 170.02 L 193.75 178.35 L 197.09 187.15 L 200.43 196.33 L 203.78 205.86 L 207.12 215.65 L 210.47 225.63 L 213.81 226.99 L 217.16 228.37 L 220.50 228.80 L 223.85 228.86 L 227.19 228.91 L 230.54 228.96 L 233.88 229.02 L 237.22 229.07 L 240.57 229.12 L 243.91 229.18 L 247.26 229.23 L 250.60 229.28 L 253.95 229.34 L 257.29 229.39 L 260.64 229.44 L 263.98 229.50 L 267.32 229.55 L 270.67 229.60 L 274.01 229.66 L 277.36 229.71 L 280.70 229.76 L 284.05 229.82 L 287.39 229.87 L 290.74 229.92 L 294.08 229.98 L 297.42 230.03 L 300.77 230.08 L 304.11 230.14 L 307.46 230.19 L 310.80 230.24 L 314.15 230.30 L 317.49 230.35 L 320.84 230.39 L 324.18 230.43 L 327.53 230.47 L 330.87 230.51 L 334.21 230.55 L 337.56 230.59 L 340.90 230.63 L 344.25 230.67 L 347.59 230.70 L 350.94 230.74 L 354.28 230.78 L 357.63 230.82 L 360.97 230.87 L 364.31 230.92 L 367.66 230.96 L 371.00 231.03 L 374.35 231.09 L 377.69 231.16 L 381.04 231.22 L 384.38 231.29 L 387.73 231.35 L 391.07 231.42 L 394.41 231.49 L 397.76 231.55 L 401.10 231.62 L 404.45 231.68 L 407.79 231.75 L 411.14 231.82 L 414.48 231.88 L 417.83 231.95 L 421.17 232.02 L 424.52 232.08 L 427.86 232.15 L 431.20 232.22 L 434.55 232.29 L 437.89 232.36 L 441.24 232.42 L 444.58 232.49 L 447.93 232.56 L 451.27 232.63 L 454.62 232.70 L 457.96 232.77 L 461.30 232.83 L 464.65 232.90 L 467.99 232.97 L 471.34 233.04 L 474.68 233.11 L 478.03 233.18 L 481.37 233.25 L 484.72 233.32 L 488.06 233.39 L 491.40 233.46 L 494.75 233.53 L 498.09 233.60 L 501.44 233.67 L 504.78 233.74 L 508.13 233.82 L 511.47 233.89 L 514.82 233.96 L 518.16 234.03 L 521.51 234.10 L 524.85 234.17 L 528.19 234.25 L 531.54 234.32 L 534.88 234.39 L 538.23 234.44 L 541.57 234.50 L 544.92 234.55 L 548.26 234.60 L 551.61 234.65 L 554.95 234.71 L 558.29 234.76 L 561.64 234.81 L 564.98 234.86 L 568.33 234.91 L 571.67 241.22 L 575.02 241.19 L 578.36 241.13 L 581.71 241.07 L 585.05 240.95 L 588.39 240.86 L 591.74 240.77 L 595.08 240.68 L 598.43 240.59 L 601.77 240.50 L 605.12 240.41 L 608.46 240.32 L 611.81 240.24 L 615.15 240.15 L 618.49 240.07 L 621.84 239.98 L 625.18 239.90 L 628.53 239.82 L 631.87 239.73 L 635.22 239.65 L 638.56 239.57 L 641.91 239.50 L 645.25 239.42 L 648.60 239.34 L 651.94 239.27 L 655.28 239.19 L 658.63 239.11 L 661.97 239.02 L 665.32 238.94 L 668.66 238.85 L 672.01 238.76 L 675.35 238.68 L 678.70 238.59 L 682.04 238.58 L 685.38 238.57 L 688.73 238.56 L 692.07 238.55 L 695.42 238.54 L 698.76 238.54 L 702.11 238.54 L 705.45 238.54 L 708.80 238.55 L 712.14 238.57 L 715.48 238.59 L 718.83 238.62 L 722.17 238.65 L 725.52 238.69 L 728.86 238.74 L 732.21 238.80 L 735.55 238.87 L 738.90 238.95 L 742.24 239.04 L 745.59 239.13 L 748.93 239.24 L 752.27 239.35 L 755.62 239.41 L 758.96 239.48 L 762.31 239.55 L 765.65 239.63 L 769.00 239.71 L 772.34 239.80 L 775.69 239.89 L 779.03 239.99 L 782.37 240.09 L 785.72 240.19 L 789.06 240.29 L 792.41 240.39 L 795.75 240.49 L 799.10 240.59 L 802.44 240.69 L 805.79 240.78 L 809.13 240.87 L 812.47 240.96 L 815.82 241.05 L 819.16 241.13 L 822.51 241.17 L 825.85 241.21 L 829.20 241.23 L 832.54 241.26 L 835.89 241.27 L 839.23 241.28 L 842.58 241.28 L 845.92 241.28 L 849.26 241.26 L 852.61 241.24 L 855.95 241.22 L 859.30 241.18 L 862.64 241.14 L 865.99 241.09 L 869.33 241.03 L 872.68 240.97 L 876.02 240.90 L 879.36 240.83 L 882.71 240.75 L 886.05 240.80 L 889.40 240.86 L 892.74 240.90 L 896.09 240.95 L 899.43 240.98 L 902.78 241.01 L 906.12 241.03 L 909.46 241.06 L 912.81 241.08 L 916.15 241.11 L 919.50 241.13 L 922.84 241.14 L 926.19 241.16 L 929.53 241.17 L 932.88 241.19 L 936.22 241.20 L 939.57 241.21 L 942.91 241.22 L 946.25 241.22 L 949.60 241.23 L 952.94 241.24 L 956.29 241.25 L 959.63 241.27 L 962.98 241.28 L 966.32 241.30 L 969.67 241.32 L 973.01 241.34 L 976.35 241.37 L 979.70 241.40 L 983.04 241.44 L 986.39 241.48 L 989.73 241.53 L 993.08 241.58 L 996.42 241.64 L 999.77 241.71 L 1003.11 241.78 L 1006.45 241.86 L 1009.80 241.95 L 1013.14 242.04 L 1016.49 242.14 L 1019.83 242.25 L 1023.18 242.36 L 1026.52 242.48 L 1029.87 242.61 L 1033.21 242.75 L 1036.56 242.89 L 1039.90 243.03 L 1043.24 243.18 L 1046.59 243.34 L 1049.93 243.50 L 1053.28 243.66 L 1056.62 243.83 L 1059.97 244.00 L 1063.31 244.17 L 1066.66 244.35 L 1070.00 244.52" fill="none" stroke="#1b7f79" stroke-width="3" />
  <path d="M 70.00 185.06 L 73.34 247.13 L 76.69 249.15 L 80.03 250.96 L 83.38 251.41 L 86.72 280.13 L 90.07 279.68 L 93.41 279.09 L 96.76 277.24 L 100.10 275.38 L 103.44 273.51 L 106.79 271.63 L 110.13 269.75 L 113.48 267.86 L 116.82 265.91 L 120.17 263.95 L 123.51 261.99 L 126.86 260.04 L 130.20 258.09 L 133.55 256.12 L 136.89 253.99 L 140.23 251.77 L 143.58 249.48 L 146.92 247.02 L 150.27 244.41 L 153.61 241.66 L 156.96 238.82 L 160.30 235.82 L 163.65 192.63 L 166.99 191.39 L 170.33 190.28 L 173.68 161.41 L 177.02 162.92 L 180.37 164.79 L 183.71 149.94 L 187.06 153.90 L 190.40 158.22 L 193.75 162.88 L 197.09 167.84 L 200.43 173.11 L 203.78 178.61 L 207.12 184.36 L 210.47 190.27 L 213.81 193.01 L 217.16 195.85 L 220.50 196.77 L 223.85 196.92 L 227.19 197.07 L 230.54 197.22 L 233.88 197.37 L 237.22 197.52 L 240.57 197.67 L 243.91 197.82 L 247.26 197.98 L 250.60 198.13 L 253.95 198.29 L 257.29 198.45 L 260.64 198.60 L 263.98 198.76 L 267.32 198.92 L 270.67 199.08 L 274.01 199.25 L 277.36 199.41 L 280.70 199.57 L 284.05 199.74 L 287.39 199.91 L 290.74 200.07 L 294.08 200.24 L 297.42 200.41 L 300.77 200.59 L 304.11 200.76 L 307.46 200.93 L 310.80 201.11 L 314.15 201.28 L 317.49 201.46 L 320.84 201.64 L 324.18 201.81 L 327.53 201.99 L 330.87 202.17 L 334.21 202.35 L 337.56 202.53 L 340.90 202.71 L 344.25 202.89 L 347.59 203.08 L 350.94 203.27 L 354.28 203.46 L 357.63 203.65 L 360.97 203.84 L 364.31 204.04 L 367.66 204.23 L 371.00 204.38 L 374.35 204.52 L 377.69 204.66 L 381.04 204.81 L 384.38 204.95 L 387.73 205.10 L 391.07 205.24 L 394.41 205.39 L 397.76 205.54 L 401.10 205.69 L 404.45 205.84 L 407.79 205.99 L 411.14 206.14 L 414.48 206.29 L 417.83 206.44 L 421.17 206.60 L 424.52 206.75 L 427.86 206.91 L 431.20 207.06 L 434.55 207.22 L 437.89 207.38 L 441.24 207.53 L 444.58 207.69 L 447.93 207.86 L 451.27 208.02 L 454.62 208.18 L 457.96 208.34 L 461.30 208.51 L 464.65 208.67 L 467.99 208.84 L 471.34 209.00 L 474.68 209.17 L 478.03 209.34 L 481.37 209.51 L 484.72 209.68 L 488.06 209.86 L 491.40 210.03 L 494.75 210.20 L 498.09 210.38 L 501.44 210.56 L 504.78 210.73 L 508.13 210.91 L 511.47 211.09 L 514.82 211.27 L 518.16 211.46 L 521.51 211.64 L 524.85 211.83 L 528.19 212.01 L 531.54 212.20 L 534.88 212.39 L 538.23 212.71 L 541.57 213.04 L 544.92 213.37 L 548.26 213.71 L 551.61 214.05 L 554.95 214.39 L 558.29 214.73 L 561.64 215.07 L 564.98 215.42 L 568.33 215.76 L 571.67 260.11 L 575.02 261.00 L 578.36 261.81 L 581.71 262.52 L 585.05 262.92 L 588.39 262.61 L 591.74 262.31 L 595.08 262.01 L 598.43 261.71 L 601.77 261.42 L 605.12 261.12 L 608.46 260.83 L 611.81 260.54 L 615.15 260.25 L 618.49 259.97 L 621.84 259.68 L 625.18 259.40 L 628.53 259.12 L 631.87 258.84 L 635.22 258.57 L 638.56 258.30 L 641.91 258.03 L 645.25 257.76 L 648.60 257.50 L 651.94 257.24 L 655.28 256.94 L 658.63 256.62 L 661.97 256.27 L 665.32 255.90 L 668.66 255.50 L 672.01 255.10 L 675.35 254.67 L 678.70 254.25 L 682.04 253.62 L 685.38 252.98 L 688.73 252.35 L 692.07 251.73 L 695.42 251.12 L 698.76 250.53 L 702.11 249.95 L 705.45 249.40 L 708.80 248.88 L 712.14 248.38 L 715.48 247.93 L 718.83 247.51 L 722.17 247.13 L 725.52 246.79 L 728.86 246.50 L 732.21 246.25 L 735.55 246.06 L 738.90 245.92 L 742.24 245.83 L 745.59 245.79 L 748.93 245.80 L 752.27 245.87 L 755.62 246.20 L 758.96 246.58 L 762.31 247.01 L 765.65 247.50 L 769.00 248.04 L 772.34 248.63 L 775.69 249.27 L 779.03 249.95 L 782.37 250.68 L 785.72 251.41 L 789.06 252.18 L 792.41 252.98 L 795.75 253.81 L 799.10 254.66 L 802.44 255.54 L 805.79 256.43 L 809.13 257.34 L 812.47 258.26 L 815.82 259.19 L 819.16 260.11 L 822.51 261.02 L 825.85 261.93 L 829.20 262.82 L 832.54 263.70 L 835.89 264.55 L 839.23 265.39 L 842.58 266.20 L 845.92 266.97 L 849.26 267.72 L 852.61 268.43 L 855.95 269.10 L 859.30 269.73 L 862.64 270.31 L 865.99 270.85 L 869.33 271.35 L 872.68 271.80 L 876.02 272.19 L 879.36 272.54 L 882.71 272.85 L 886.05 272.81 L 889.40 272.72 L 892.74 272.58 L 896.09 272.38 L 899.43 272.10 L 902.78 271.68 L 906.12 271.26 L 909.46 270.84 L 912.81 270.42 L 916.15 269.99 L 919.50 269.53 L 922.84 269.03 L 926.19 268.51 L 929.53 267.97 L 932.88 267.40 L 936.22 266.82 L 939.57 266.23 L 942.91 265.62 L 946.25 265.01 L 949.60 264.41 L 952.94 263.80 L 956.29 263.21 L 959.63 262.62 L 962.98 262.05 L 966.32 261.50 L 969.67 260.97 L 973.01 260.48 L 976.35 260.01 L 979.70 259.57 L 983.04 259.17 L 986.39 258.81 L 989.73 258.50 L 993.08 258.23 L 996.42 258.00 L 999.77 257.82 L 1003.11 257.69 L 1006.45 257.62 L 1009.80 257.59 L 1013.14 257.62 L 1016.49 257.69 L 1019.83 257.82 L 1023.18 258.00 L 1026.52 258.23 L 1029.87 258.51 L 1033.21 258.84 L 1036.56 259.21 L 1039.90 259.62 L 1043.24 260.08 L 1046.59 260.57 L 1049.93 261.10 L 1053.28 261.66 L 1056.62 262.25 L 1059.97 262.87 L 1063.31 263.51 L 1066.66 264.16 L 1070.00 264.83" fill="none" stroke="#cf5c36" stroke-width="3" />

  <circle cx="770" cy="48" r="5" fill="#1b7f79" /><text x="782" y="53" font-size="13" fill="#666055">Superorganism</text>
  <circle cx="900" cy="48" r="5" fill="#cf5c36" /><text x="912" y="53" font-size="13" fill="#666055">Complexity</text>

  <text x="70" y="494" font-size="12" fill="#666055">Tick 0</text>
  <text x="1040" y="494" font-size="12" fill="#666055">Tick 299</text>

  <text x="850" y="380" font-size="12" fill="#666055">Final modes (H/S/A)</text>
  
        <rect x="840" y="300" width="60" height="100" fill="#637d5f" rx="6" />
        <text x="870" y="424" text-anchor="middle" font-size="14" fill="#666055">H</text>
        <text x="870" y="294" text-anchor="middle" font-size="12" fill="#1f1f1f">1</text>
      

        <rect x="922" y="400" width="60" height="0" fill="#9e7c46" rx="6" />
        <text x="952" y="424" text-anchor="middle" font-size="14" fill="#666055">S</text>
        <text x="952" y="394" text-anchor="middle" font-size="12" fill="#1f1f1f">0</text>
      

        <rect x="1004" y="300" width="60" height="100" fill="#8a5a44" rx="6" />
        <text x="1034" y="424" text-anchor="middle" font-size="14" fill="#666055">A</text>
        <text x="1034" y="294" text-anchor="middle" font-size="12" fill="#1f1f1f">1</text>
      
</svg>